<svg xmlns="http://www.w3.org/2000/svg" viewBox="0 0 644 462" width="644" height="462"><defs><pattern id="hatch" width="6" height="6" patternUnits="userSpaceOnUse" patternTransform="rotate(45)"><line x1="0" y1="0" x2="0" y2="6" stroke="#17251D" stroke-opacity="0.35" stroke-width="2"/></pattern></defs><rect width="100%" height="100%" rx="10" fill="#FBFCF8" stroke="#D5DBD0"/><text x="16" y="28" font-family="'IBM Plex Sans','Segoe UI',Helvetica,Arial,sans-serif" font-size="17" font-weight="600" fill="#17251D">02_forwarding.s</text><text x="16" y="48" font-family="'IBM Plex Sans','Segoe UI',Helvetica,Arial,sans-serif" font-size="12" fill="#4A5A50">12 cycles, 7 instructions, CPI 1.71: 0 load stall(s), 0 flush(es), 2 FETCH2 redirect(s), 6 forwarded operand(s)</text><text x="275" y="64" text-anchor="middle" font-family="'IBM Plex Mono','SFMono-Regular',Consolas,monospace" font-size="10.5" fill="#6B7A70">1</text><text x="305" y="64" text-anchor="middle" font-family="'IBM Plex Mono','SFMono-Regular',Consolas,monospace" font-size="10.5" fill="#6B7A70">2</text><text x="335" y="64" text-anchor="middle" font-family="'IBM Plex Mono','SFMono-Regular',Consolas,monospace" font-size="10.5" fill="#6B7A70">3</text><text x="365" y="64" text-anchor="middle" font-family="'IBM Plex Mono','SFMono-Regular',Consolas,monospace" font-size="10.5" fill="#6B7A70">4</text><text x="395" y="64" text-anchor="middle" font-family="'IBM Plex Mono','SFMono-Regular',Consolas,monospace" font-size="10.5" fill="#6B7A70">5</text><text x="425" y="64" text-anchor="middle" font-family="'IBM Plex Mono','SFMono-Regular',Consolas,monospace" font-size="10.5" fill="#6B7A70">6</text><text x="455" y="64" text-anchor="middle" font-family="'IBM Plex Mono','SFMono-Regular',Consolas,monospace" font-size="10.5" fill="#6B7A70">7</text><text x="485" y="64" text-anchor="middle" font-family="'IBM Plex Mono','SFMono-Regular',Consolas,monospace" font-size="10.5" fill="#6B7A70">8</text><text x="515" y="64" text-anchor="middle" font-family="'IBM Plex Mono','SFMono-Regular',Consolas,monospace" font-size="10.5" fill="#6B7A70">9</text><text x="545" y="64" text-anchor="middle" font-family="'IBM Plex Mono','SFMono-Regular',Consolas,monospace" font-size="10.5" fill="#6B7A70">10</text><text x="575" y="64" text-anchor="middle" font-family="'IBM Plex Mono','SFMono-Regular',Consolas,monospace" font-size="10.5" fill="#6B7A70">11</text><text x="605" y="64" text-anchor="middle" font-family="'IBM Plex Mono','SFMono-Regular',Consolas,monospace" font-size="10.5" fill="#6B7A70">12</text><rect x="8" y="70" width="628" height="24" fill="#EEF2EA" fill-opacity="0.6"/><text x="16" y="86" font-family="'IBM Plex Mono','SFMono-Regular',Consolas,monospace" font-size="11" fill="#6B7A70">2000</text><text x="56" y="86" font-family="'IBM Plex Mono','SFMono-Regular',Consolas,monospace" font-size="11.5" fill="#17251D">addi a0, zero, 1</text><rect x="262" y="73" width="26" height="18" rx="3" fill="#2E86C1"/><text x="275" y="86" text-anchor="middle" font-family="'IBM Plex Sans','Segoe UI',Helvetica,Arial,sans-serif" font-size="10" font-weight="700" fill="#FFFFFF">F1</text><rect x="292" y="73" width="26" height="18" rx="3" fill="#17A2B8"/><text x="305" y="86" text-anchor="middle" font-family="'IBM Plex Sans','Segoe UI',Helvetica,Arial,sans-serif" font-size="10" font-weight="700" fill="#FFFFFF">F2</text><rect x="322" y="73" width="26" height="18" rx="3" fill="#6A5ACD"/><text x="335" y="86" text-anchor="middle" font-family="'IBM Plex Sans','Segoe UI',Helvetica,Arial,sans-serif" font-size="10" font-weight="700" fill="#FFFFFF">D</text><rect x="352" y="73" width="26" height="18" rx="3" fill="#E08E0B"/><text x="365" y="86" text-anchor="middle" font-family="'IBM Plex Sans','Segoe UI',Helvetica,Arial,sans-serif" font-size="10" font-weight="700" fill="#FFFFFF">E</text><rect x="382" y="73" width="26" height="18" rx="3" fill="#27AE60"/><text x="395" y="86" text-anchor="middle" font-family="'IBM Plex Sans','Segoe UI',Helvetica,Arial,sans-serif" font-size="10" font-weight="700" fill="#FFFFFF">M</text><rect x="412" y="73" width="26" height="18" rx="3" fill="#C0392B"/><text x="425" y="86" text-anchor="middle" font-family="'IBM Plex Sans','Segoe UI',Helvetica,Arial,sans-serif" font-size="10" font-weight="700" fill="#FFFFFF">W</text><text x="16" y="110" font-family="'IBM Plex Mono','SFMono-Regular',Consolas,monospace" font-size="11" fill="#6B7A70">2004</text><text x="56" y="110" font-family="'IBM Plex Mono','SFMono-Regular',Consolas,monospace" font-size="11.5" fill="#17251D">addi a0, a0, 2</text><rect x="292" y="97" width="26" height="18" rx="3" fill="#2E86C1"/><text x="305" y="110" text-anchor="middle" font-family="'IBM Plex Sans','Segoe UI',Helvetica,Arial,sans-serif" font-size="10" font-weight="700" fill="#FFFFFF">F1</text><rect x="322" y="97" width="26" height="18" rx="3" fill="#17A2B8"/><text x="335" y="110" text-anchor="middle" font-family="'IBM Plex Sans','Segoe UI',Helvetica,Arial,sans-serif" font-size="10" font-weight="700" fill="#FFFFFF">F2</text><rect x="352" y="97" width="26" height="18" rx="3" fill="#6A5ACD"/><text x="365" y="110" text-anchor="middle" font-family="'IBM Plex Sans','Segoe UI',Helvetica,Arial,sans-serif" font-size="10" font-weight="700" fill="#FFFFFF">D</text><circle cx="376" cy="99" r="4" fill="#FFFFFF" stroke="#6A5ACD" stroke-width="2"/><rect x="382" y="97" width="26" height="18" rx="3" fill="#E08E0B"/><text x="395" y="110" text-anchor="middle" font-family="'IBM Plex Sans','Segoe UI',Helvetica,Arial,sans-serif" font-size="10" font-weight="700" fill="#FFFFFF">E</text><rect x="412" y="97" width="26" height="18" rx="3" fill="#27AE60"/><text x="425" y="110" text-anchor="middle" font-family="'IBM Plex Sans','Segoe UI',Helvetica,Arial,sans-serif" font-size="10" font-weight="700" fill="#FFFFFF">M</text><rect x="442" y="97" width="26" height="18" rx="3" fill="#C0392B"/><text x="455" y="110" text-anchor="middle" font-family="'IBM Plex Sans','Segoe UI',Helvetica,Arial,sans-serif" font-size="10" font-weight="700" fill="#FFFFFF">W</text><rect x="8" y="118" width="628" height="24" fill="#EEF2EA" fill-opacity="0.6"/><text x="16" y="134" font-family="'IBM Plex Mono','SFMono-Regular',Consolas,monospace" font-size="11" fill="#6B7A70">2008</text><text x="56" y="134" font-family="'IBM Plex Mono','SFMono-Regular',Consolas,monospace" font-size="11.5" fill="#17251D">add a0, a0, a0</text><rect x="322" y="121" width="26" height="18" rx="3" fill="#2E86C1"/><text x="335" y="134" text-anchor="middle" font-family="'IBM Plex Sans','Segoe UI',Helvetica,Arial,sans-serif" font-size="10" font-weight="700" fill="#FFFFFF">F1</text><rect x="352" y="121" width="26" height="18" rx="3" fill="#17A2B8"/><text x="365" y="134" text-anchor="middle" font-family="'IBM Plex Sans','Segoe UI',Helvetica,Arial,sans-serif" font-size="10" font-weight="700" fill="#FFFFFF">F2</text><rect x="382" y="121" width="26" height="18" rx="3" fill="#6A5ACD"/><text x="395" y="134" text-anchor="middle" font-family="'IBM Plex Sans','Segoe UI',Helvetica,Arial,sans-serif" font-size="10" font-weight="700" fill="#FFFFFF">D</text><circle cx="406" cy="123" r="4" fill="#FFFFFF" stroke="#6A5ACD" stroke-width="2"/><rect x="412" y="121" width="26" height="18" rx="3" fill="#E08E0B"/><text x="425" y="134" text-anchor="middle" font-family="'IBM Plex Sans','Segoe UI',Helvetica,Arial,sans-serif" font-size="10" font-weight="700" fill="#FFFFFF">E</text><rect x="442" y="121" width="26" height="18" rx="3" fill="#27AE60"/><text x="455" y="134" text-anchor="middle" font-family="'IBM Plex Sans','Segoe UI',Helvetica,Arial,sans-serif" font-size="10" font-weight="700" fill="#FFFFFF">M</text><rect x="472" y="121" width="26" height="18" rx="3" fill="#C0392B"/><text x="485" y="134" text-anchor="middle" font-family="'IBM Plex Sans','Segoe UI',Helvetica,Arial,sans-serif" font-size="10" font-weight="700" fill="#FFFFFF">W</text><text x="16" y="158" font-family="'IBM Plex Mono','SFMono-Regular',Consolas,monospace" font-size="11" fill="#6B7A70">200c</text><text x="56" y="158" font-family="'IBM Plex Mono','SFMono-Regular',Consolas,monospace" font-size="11.5" fill="#17251D">addi a1, zero, 7</text><rect x="352" y="145" width="26" height="18" rx="3" fill="#2E86C1"/><text x="365" y="158" text-anchor="middle" font-family="'IBM Plex Sans','Segoe UI',Helvetica,Arial,sans-serif" font-size="10" font-weight="700" fill="#FFFFFF">F1</text><rect x="382" y="145" width="26" height="18" rx="3" fill="#17A2B8"/><text x="395" y="158" text-anchor="middle" font-family="'IBM Plex Sans','Segoe UI',Helvetica,Arial,sans-serif" font-size="10" font-weight="700" fill="#FFFFFF">F2</text><rect x="412" y="145" width="26" height="18" rx="3" fill="#6A5ACD"/><text x="425" y="158" text-anchor="middle" font-family="'IBM Plex Sans','Segoe UI',Helvetica,Arial,sans-serif" font-size="10" font-weight="700" fill="#FFFFFF">D</text><rect x="442" y="145" width="26" height="18" rx="3" fill="#E08E0B"/><text x="455" y="158" text-anchor="middle" font-family="'IBM Plex Sans','Segoe UI',Helvetica,Arial,sans-serif" font-size="10" font-weight="700" fill="#FFFFFF">E</text><rect x="472" y="145" width="26" height="18" rx="3" fill="#27AE60"/><text x="485" y="158" text-anchor="middle" font-family="'IBM Plex Sans','Segoe UI',Helvetica,Arial,sans-serif" font-size="10" font-weight="700" fill="#FFFFFF">M</text><rect x="502" y="145" width="26" height="18" rx="3" fill="#C0392B"/><text x="515" y="158" text-anchor="middle" font-family="'IBM Plex Sans','Segoe UI',Helvetica,Arial,sans-serif" font-size="10" font-weight="700" fill="#FFFFFF">W</text><rect x="8" y="166" width="628" height="24" fill="#EEF2EA" fill-opacity="0.6"/><text x="16" y="182" font-family="'IBM Plex Mono','SFMono-Regular',Consolas,monospace" font-size="11" fill="#6B7A70">2010</text><text x="56" y="182" font-family="'IBM Plex Mono','SFMono-Regular',Consolas,monospace" font-size="11.5" fill="#17251D">add a0, a0, a1</text><rect x="382" y="169" width="26" height="18" rx="3" fill="#2E86C1"/><text x="395" y="182" text-anchor="middle" font-family="'IBM Plex Sans','Segoe UI',Helvetica,Arial,sans-serif" font-size="10" font-weight="700" fill="#FFFFFF">F1</text><rect x="412" y="169" width="26" height="18" rx="3" fill="#17A2B8"/><text x="425" y="182" text-anchor="middle" font-family="'IBM Plex Sans','Segoe UI',Helvetica,Arial,sans-serif" font-size="10" font-weight="700" fill="#FFFFFF">F2</text><rect x="442" y="169" width="26" height="18" rx="3" fill="#6A5ACD"/><text x="455" y="182" text-anchor="middle" font-family="'IBM Plex Sans','Segoe UI',Helvetica,Arial,sans-serif" font-size="10" font-weight="700" fill="#FFFFFF">D</text><circle cx="466" cy="171" r="4" fill="#FFFFFF" stroke="#6A5ACD" stroke-width="2"/><rect x="472" y="169" width="26" height="18" rx="3" fill="#E08E0B"/><text x="485" y="182" text-anchor="middle" font-family="'IBM Plex Sans','Segoe UI',Helvetica,Arial,sans-serif" font-size="10" font-weight="700" fill="#FFFFFF">E</text><rect x="502" y="169" width="26" height="18" rx="3" fill="#27AE60"/><text x="515" y="182" text-anchor="middle" font-family="'IBM Plex Sans','Segoe UI',Helvetica,Arial,sans-serif" font-size="10" font-weight="700" fill="#FFFFFF">M</text><rect x="532" y="169" width="26" height="18" rx="3" fill="#C0392B"/><text x="545" y="182" text-anchor="middle" font-family="'IBM Plex Sans','Segoe UI',Helvetica,Arial,sans-serif" font-size="10" font-weight="700" fill="#FFFFFF">W</text><text x="16" y="206" font-family="'IBM Plex Mono','SFMono-Regular',Consolas,monospace" font-size="11" fill="#6B7A70">2014</text><text x="56" y="206" font-family="'IBM Plex Mono','SFMono-Regular',Consolas,monospace" font-size="11.5" fill="#17251D">slli a0, a0, 1</text><rect x="412" y="193" width="26" height="18" rx="3" fill="#2E86C1"/><text x="425" y="206" text-anchor="middle" font-family="'IBM Plex Sans','Segoe UI',Helvetica,Arial,sans-serif" font-size="10" font-weight="700" fill="#FFFFFF">F1</text><rect x="442" y="193" width="26" height="18" rx="3" fill="#17A2B8"/><text x="455" y="206" text-anchor="middle" font-family="'IBM Plex Sans','Segoe UI',Helvetica,Arial,sans-serif" font-size="10" font-weight="700" fill="#FFFFFF">F2</text><rect x="472" y="193" width="26" height="18" rx="3" fill="#6A5ACD"/><text x="485" y="206" text-anchor="middle" font-family="'IBM Plex Sans','Segoe UI',Helvetica,Arial,sans-serif" font-size="10" font-weight="700" fill="#FFFFFF">D</text><circle cx="496" cy="195" r="4" fill="#FFFFFF" stroke="#6A5ACD" stroke-width="2"/><rect x="502" y="193" width="26" height="18" rx="3" fill="#E08E0B"/><text x="515" y="206" text-anchor="middle" font-family="'IBM Plex Sans','Segoe UI',Helvetica,Arial,sans-serif" font-size="10" font-weight="700" fill="#FFFFFF">E</text><rect x="532" y="193" width="26" height="18" rx="3" fill="#27AE60"/><text x="545" y="206" text-anchor="middle" font-family="'IBM Plex Sans','Segoe UI',Helvetica,Arial,sans-serif" font-size="10" font-weight="700" fill="#FFFFFF">M</text><rect x="562" y="193" width="26" height="18" rx="3" fill="#C0392B"/><text x="575" y="206" text-anchor="middle" font-family="'IBM Plex Sans','Segoe UI',Helvetica,Arial,sans-serif" font-size="10" font-weight="700" fill="#FFFFFF">W</text><rect x="8" y="214" width="628" height="24" fill="#EEF2EA" fill-opacity="0.6"/><text x="16" y="230" font-family="'IBM Plex Mono','SFMono-Regular',Consolas,monospace" font-size="11" fill="#6B7A70">2018</text><text x="56" y="230" font-family="'IBM Plex Mono','SFMono-Regular',Consolas,monospace" font-size="11.5" fill="#17251D">csrrwi zero, tohost, 1</text><rect x="442" y="217" width="26" height="18" rx="3" fill="#2E86C1"/><text x="455" y="230" text-anchor="middle" font-family="'IBM Plex Sans','Segoe UI',Helvetica,Arial,sans-serif" font-size="10" font-weight="700" fill="#FFFFFF">F1</text><rect x="472" y="217" width="26" height="18" rx="3" fill="#17A2B8"/><text x="485" y="230" text-anchor="middle" font-family="'IBM Plex Sans','Segoe UI',Helvetica,Arial,sans-serif" font-size="10" font-weight="700" fill="#FFFFFF">F2</text><rect x="502" y="217" width="26" height="18" rx="3" fill="#6A5ACD"/><text x="515" y="230" text-anchor="middle" font-family="'IBM Plex Sans','Segoe UI',Helvetica,Arial,sans-serif" font-size="10" font-weight="700" fill="#FFFFFF">D</text><rect x="532" y="217" width="26" height="18" rx="3" fill="#E08E0B"/><text x="545" y="230" text-anchor="middle" font-family="'IBM Plex Sans','Segoe UI',Helvetica,Arial,sans-serif" font-size="10" font-weight="700" fill="#FFFFFF">E</text><rect x="562" y="217" width="26" height="18" rx="3" fill="#27AE60"/><text x="575" y="230" text-anchor="middle" font-family="'IBM Plex Sans','Segoe UI',Helvetica,Arial,sans-serif" font-size="10" font-weight="700" fill="#FFFFFF">M</text><rect x="592" y="217" width="26" height="18" rx="3" fill="#C0392B"/><text x="605" y="230" text-anchor="middle" font-family="'IBM Plex Sans','Segoe UI',Helvetica,Arial,sans-serif" font-size="10" font-weight="700" fill="#FFFFFF">W</text><text x="16" y="254" font-family="'IBM Plex Mono','SFMono-Regular',Consolas,monospace" font-size="11" fill="#6B7A70">201c</text><text x="56" y="254" font-family="'IBM Plex Mono','SFMono-Regular',Consolas,monospace" font-size="11.5" fill="#17251D">jal zero, 0x201c</text><rect x="472" y="241" width="26" height="18" rx="3" fill="#2E86C1"/><text x="485" y="254" text-anchor="middle" font-family="'IBM Plex Sans','Segoe UI',Helvetica,Arial,sans-serif" font-size="10" font-weight="700" fill="#FFFFFF">F1</text><rect x="502" y="241" width="26" height="18" rx="3" fill="#17A2B8"/><text x="515" y="254" text-anchor="middle" font-family="'IBM Plex Sans','Segoe UI',Helvetica,Arial,sans-serif" font-size="10" font-weight="700" fill="#FFFFFF">F2</text><rect x="532" y="241" width="26" height="18" rx="3" fill="#6A5ACD"/><text x="545" y="254" text-anchor="middle" font-family="'IBM Plex Sans','Segoe UI',Helvetica,Arial,sans-serif" font-size="10" font-weight="700" fill="#FFFFFF">D</text><rect x="562" y="241" width="26" height="18" rx="3" fill="#E08E0B"/><text x="575" y="254" text-anchor="middle" font-family="'IBM Plex Sans','Segoe UI',Helvetica,Arial,sans-serif" font-size="10" font-weight="700" fill="#FFFFFF">E</text><rect x="592" y="241" width="26" height="18" rx="3" fill="#27AE60"/><text x="605" y="254" text-anchor="middle" font-family="'IBM Plex Sans','Segoe UI',Helvetica,Arial,sans-serif" font-size="10" font-weight="700" fill="#FFFFFF">M</text><rect x="8" y="262" width="628" height="24" fill="#EEF2EA" fill-opacity="0.6"/><text x="16" y="278" font-family="'IBM Plex Mono','SFMono-Regular',Consolas,monospace" font-size="11" fill="#9AA59D">2020</text><text x="56" y="278" font-family="'IBM Plex Mono','SFMono-Regular',Consolas,monospace" font-size="11.5" fill="#9AA59D" text-decoration="line-through">(empty memory, not code)</text><rect x="502" y="265" width="26" height="18" rx="3" fill="#B4BDB6" fill-opacity="0.45"/><text x="515" y="278" text-anchor="middle" font-family="'IBM Plex Sans','Segoe UI',Helvetica,Arial,sans-serif" font-size="10" font-weight="700" fill="#FFFFFF">F1</text><text x="16" y="302" font-family="'IBM Plex Mono','SFMono-Regular',Consolas,monospace" font-size="11" fill="#6B7A70">201c</text><text x="56" y="302" font-family="'IBM Plex Mono','SFMono-Regular',Consolas,monospace" font-size="11.5" fill="#17251D">jal zero, 0x201c</text><rect x="532" y="289" width="26" height="18" rx="3" fill="#2E86C1"/><text x="545" y="302" text-anchor="middle" font-family="'IBM Plex Sans','Segoe UI',Helvetica,Arial,sans-serif" font-size="10" font-weight="700" fill="#FFFFFF">F1</text><rect x="562" y="289" width="26" height="18" rx="3" fill="#17A2B8"/><text x="575" y="302" text-anchor="middle" font-family="'IBM Plex Sans','Segoe UI',Helvetica,Arial,sans-serif" font-size="10" font-weight="700" fill="#FFFFFF">F2</text><rect x="592" y="289" width="26" height="18" rx="3" fill="#6A5ACD"/><text x="605" y="302" text-anchor="middle" font-family="'IBM Plex Sans','Segoe UI',Helvetica,Arial,sans-serif" font-size="10" font-weight="700" fill="#FFFFFF">D</text><rect x="8" y="310" width="628" height="24" fill="#EEF2EA" fill-opacity="0.6"/><text x="16" y="326" font-family="'IBM Plex Mono','SFMono-Regular',Consolas,monospace" font-size="11" fill="#9AA59D">2020</text><text x="56" y="326" font-family="'IBM Plex Mono','SFMono-Regular',Consolas,monospace" font-size="11.5" fill="#9AA59D" text-decoration="line-through">(empty memory, not code)</text><rect x="562" y="313" width="26" height="18" rx="3" fill="#B4BDB6" fill-opacity="0.45"/><text x="575" y="326" text-anchor="middle" font-family="'IBM Plex Sans','Segoe UI',Helvetica,Arial,sans-serif" font-size="10" font-weight="700" fill="#FFFFFF">F1</text><text x="16" y="350" font-family="'IBM Plex Mono','SFMono-Regular',Consolas,monospace" font-size="11" fill="#6B7A70">201c</text><text x="56" y="350" font-family="'IBM Plex Mono','SFMono-Regular',Consolas,monospace" font-size="11.5" fill="#17251D">jal zero, 0x201c</text><rect x="592" y="337" width="26" height="18" rx="3" fill="#2E86C1"/><text x="605" y="350" text-anchor="middle" font-family="'IBM Plex Sans','Segoe UI',Helvetica,Arial,sans-serif" font-size="10" font-weight="700" fill="#FFFFFF">F1</text><text x="16" y="380" font-family="'IBM Plex Sans','Segoe UI',Helvetica,Arial,sans-serif" font-size="11.5" font-weight="600" fill="#4A5A50">hazard events</text><rect x="502" y="366" width="26" height="18" rx="3" fill="#17A2B8"/><text x="515" y="379" text-anchor="middle" font-family="'IBM Plex Sans','Segoe UI',Helvetica,Arial,sans-serif" font-size="8.5" font-weight="700" fill="#FFF">redir</text><rect x="562" y="366" width="26" height="18" rx="3" fill="#17A2B8"/><text x="575" y="379" text-anchor="middle" font-family="'IBM Plex Sans','Segoe UI',Helvetica,Arial,sans-serif" font-size="8.5" font-weight="700" fill="#FFF">redir</text><rect x="16" y="415" width="26" height="15" rx="3" fill="#2E86C1"/><text x="29" y="426" text-anchor="middle" font-family="'IBM Plex Sans','Segoe UI',Helvetica,Arial,sans-serif" font-size="9.5" font-weight="700" fill="#FFF">F1</text><text x="46" y="426" font-family="'IBM Plex Sans','Segoe UI',Helvetica,Arial,sans-serif" font-size="10.5" fill="#4A5A50">FETCH1</text><rect x="98.4" y="415" width="26" height="15" rx="3" fill="#17A2B8"/><text x="111.4" y="426" text-anchor="middle" font-family="'IBM Plex Sans','Segoe UI',Helvetica,Arial,sans-serif" font-size="9.5" font-weight="700" fill="#FFF">F2</text><text x="128.4" y="426" font-family="'IBM Plex Sans','Segoe UI',Helvetica,Arial,sans-serif" font-size="10.5" fill="#4A5A50">FETCH2</text><rect x="180.8" y="415" width="26" height="15" rx="3" fill="#6A5ACD"/><text x="193.8" y="426" text-anchor="middle" font-family="'IBM Plex Sans','Segoe UI',Helvetica,Arial,sans-serif" font-size="9.5" font-weight="700" fill="#FFF">D</text><text x="210.8" y="426" font-family="'IBM Plex Sans','Segoe UI',Helvetica,Arial,sans-serif" font-size="10.5" fill="#4A5A50">DECODE</text><rect x="263.20000000000005" y="415" width="26" height="15" rx="3" fill="#E08E0B"/><text x="276.20000000000005" y="426" text-anchor="middle" font-family="'IBM Plex Sans','Segoe UI',Helvetica,Arial,sans-serif" font-size="9.5" font-weight="700" fill="#FFF">E</text><text x="293.20000000000005" y="426" font-family="'IBM Plex Sans','Segoe UI',Helvetica,Arial,sans-serif" font-size="10.5" fill="#4A5A50">EXECUTE</text><rect x="353.00000000000006" y="415" width="26" height="15" rx="3" fill="#27AE60"/><text x="366.00000000000006" y="426" text-anchor="middle" font-family="'IBM Plex Sans','Segoe UI',Helvetica,Arial,sans-serif" font-size="9.5" font-weight="700" fill="#FFF">M</text><text x="383.00000000000006" y="426" font-family="'IBM Plex Sans','Segoe UI',Helvetica,Arial,sans-serif" font-size="10.5" fill="#4A5A50">MEMORY</text><rect x="435.4000000000001" y="415" width="26" height="15" rx="3" fill="#C0392B"/><text x="448.4000000000001" y="426" text-anchor="middle" font-family="'IBM Plex Sans','Segoe UI',Helvetica,Arial,sans-serif" font-size="9.5" font-weight="700" fill="#FFF">W</text><text x="465.4000000000001" y="426" font-family="'IBM Plex Sans','Segoe UI',Helvetica,Arial,sans-serif" font-size="10.5" fill="#4A5A50">WRITEBACK</text><rect x="16" y="433" width="26" height="15" rx="3" fill="#6A5ACD"/><rect x="16" y="433" width="26" height="15" rx="3" fill="url(#hatch)"/><text x="48" y="444" font-family="'IBM Plex Sans','Segoe UI',Helvetica,Arial,sans-serif" font-size="11" fill="#4A5A50">held by LOAD_STALL</text><circle cx="186" cy="440" r="4" fill="#FFF" stroke="#6A5ACD" stroke-width="2"/><text x="196" y="444" font-family="'IBM Plex Sans','Segoe UI',Helvetica,Arial,sans-serif" font-size="11" fill="#4A5A50">operand forwarded into DECODE</text><rect x="386" y="433" width="26" height="15" rx="3" fill="#B4BDB6" fill-opacity="0.45"/><text x="418" y="444" font-family="'IBM Plex Sans','Segoe UI',Helvetica,Arial,sans-serif" font-size="11" fill="#4A5A50">squashed (wrong path)</text></svg>
