<svg xmlns="http://www.w3.org/2000/svg" viewBox="0 0 1174 686" width="1174" height="686"><defs><pattern id="hatch" width="6" height="6" patternUnits="userSpaceOnUse" patternTransform="rotate(45)"><line x1="0" y1="0" x2="0" y2="6" stroke="#17251D" stroke-opacity="0.35" stroke-width="2"/></pattern></defs><rect width="100%" height="100%" rx="10" fill="#FBFCF8" stroke="#D5DBD0"/><text x="16" y="28" font-family="'IBM Plex Sans','Segoe UI',Helvetica,Arial,sans-serif" font-size="17" font-weight="600" fill="#17251D">06_bubble_sort.s</text><text x="16" y="48" font-family="'IBM Plex Sans','Segoe UI',Helvetica,Arial,sans-serif" font-size="12" fill="#4A5A50">939 cycles total, 721 retired, CPI 1.30, 72 load-use stall(s), 47 redirect(s), 399 forwarded operand(s) — first 30 cycles shown</text><text x="265" y="64" text-anchor="middle" font-family="'IBM Plex Mono','SFMono-Regular',Consolas,monospace" font-size="10.5" fill="#6B7A70">1</text><text x="295" y="64" text-anchor="middle" font-family="'IBM Plex Mono','SFMono-Regular',Consolas,monospace" font-size="10.5" fill="#6B7A70">2</text><text x="325" y="64" text-anchor="middle" font-family="'IBM Plex Mono','SFMono-Regular',Consolas,monospace" font-size="10.5" fill="#6B7A70">3</text><text x="355" y="64" text-anchor="middle" font-family="'IBM Plex Mono','SFMono-Regular',Consolas,monospace" font-size="10.5" fill="#6B7A70">4</text><text x="385" y="64" text-anchor="middle" font-family="'IBM Plex Mono','SFMono-Regular',Consolas,monospace" font-size="10.5" fill="#6B7A70">5</text><text x="415" y="64" text-anchor="middle" font-family="'IBM Plex Mono','SFMono-Regular',Consolas,monospace" font-size="10.5" fill="#6B7A70">6</text><text x="445" y="64" text-anchor="middle" font-family="'IBM Plex Mono','SFMono-Regular',Consolas,monospace" font-size="10.5" fill="#6B7A70">7</text><text x="475" y="64" text-anchor="middle" font-family="'IBM Plex Mono','SFMono-Regular',Consolas,monospace" font-size="10.5" fill="#6B7A70">8</text><text x="505" y="64" text-anchor="middle" font-family="'IBM Plex Mono','SFMono-Regular',Consolas,monospace" font-size="10.5" fill="#6B7A70">9</text><text x="535" y="64" text-anchor="middle" font-family="'IBM Plex Mono','SFMono-Regular',Consolas,monospace" font-size="10.5" fill="#6B7A70">10</text><text x="565" y="64" text-anchor="middle" font-family="'IBM Plex Mono','SFMono-Regular',Consolas,monospace" font-size="10.5" fill="#6B7A70">11</text><text x="595" y="64" text-anchor="middle" font-family="'IBM Plex Mono','SFMono-Regular',Consolas,monospace" font-size="10.5" fill="#6B7A70">12</text><text x="625" y="64" text-anchor="middle" font-family="'IBM Plex Mono','SFMono-Regular',Consolas,monospace" font-size="10.5" fill="#6B7A70">13</text><text x="655" y="64" text-anchor="middle" font-family="'IBM Plex Mono','SFMono-Regular',Consolas,monospace" font-size="10.5" fill="#6B7A70">14</text><text x="685" y="64" text-anchor="middle" font-family="'IBM Plex Mono','SFMono-Regular',Consolas,monospace" font-size="10.5" fill="#6B7A70">15</text><text x="715" y="64" text-anchor="middle" font-family="'IBM Plex Mono','SFMono-Regular',Consolas,monospace" font-size="10.5" fill="#6B7A70">16</text><text x="745" y="64" text-anchor="middle" font-family="'IBM Plex Mono','SFMono-Regular',Consolas,monospace" font-size="10.5" fill="#6B7A70">17</text><text x="775" y="64" text-anchor="middle" font-family="'IBM Plex Mono','SFMono-Regular',Consolas,monospace" font-size="10.5" fill="#6B7A70">18</text><text x="805" y="64" text-anchor="middle" font-family="'IBM Plex Mono','SFMono-Regular',Consolas,monospace" font-size="10.5" fill="#6B7A70">19</text><text x="835" y="64" text-anchor="middle" font-family="'IBM Plex Mono','SFMono-Regular',Consolas,monospace" font-size="10.5" fill="#6B7A70">20</text><text x="865" y="64" text-anchor="middle" font-family="'IBM Plex Mono','SFMono-Regular',Consolas,monospace" font-size="10.5" fill="#6B7A70">21</text><text x="895" y="64" text-anchor="middle" font-family="'IBM Plex Mono','SFMono-Regular',Consolas,monospace" font-size="10.5" fill="#6B7A70">22</text><text x="925" y="64" text-anchor="middle" font-family="'IBM Plex Mono','SFMono-Regular',Consolas,monospace" font-size="10.5" fill="#6B7A70">23</text><text x="955" y="64" text-anchor="middle" font-family="'IBM Plex Mono','SFMono-Regular',Consolas,monospace" font-size="10.5" fill="#6B7A70">24</text><text x="985" y="64" text-anchor="middle" font-family="'IBM Plex Mono','SFMono-Regular',Consolas,monospace" font-size="10.5" fill="#6B7A70">25</text><text x="1015" y="64" text-anchor="middle" font-family="'IBM Plex Mono','SFMono-Regular',Consolas,monospace" font-size="10.5" fill="#6B7A70">26</text><text x="1045" y="64" text-anchor="middle" font-family="'IBM Plex Mono','SFMono-Regular',Consolas,monospace" font-size="10.5" fill="#6B7A70">27</text><text x="1075" y="64" text-anchor="middle" font-family="'IBM Plex Mono','SFMono-Regular',Consolas,monospace" font-size="10.5" fill="#6B7A70">28</text><text x="1105" y="64" text-anchor="middle" font-family="'IBM Plex Mono','SFMono-Regular',Consolas,monospace" font-size="10.5" fill="#6B7A70">29</text><text x="1135" y="64" text-anchor="middle" font-family="'IBM Plex Mono','SFMono-Regular',Consolas,monospace" font-size="10.5" fill="#6B7A70">30</text><rect x="8" y="70" width="1158" height="24" fill="#EEF2EA" fill-opacity="0.6"/><text x="16" y="86" font-family="'IBM Plex Mono','SFMono-Regular',Consolas,monospace" font-size="11" fill="#6B7A70">0000</text><text x="56" y="86" font-family="'IBM Plex Mono','SFMono-Regular',Consolas,monospace" font-size="11.5" fill="#17251D">auipc s0, 0x0</text><rect x="252" y="73" width="26" height="18" rx="3" fill="#3C8DBC"/><text x="265" y="86" text-anchor="middle" font-family="'IBM Plex Sans','Segoe UI',Helvetica,Arial,sans-serif" font-size="9.5" font-weight="700" fill="#FFFFFF">IF</text><rect x="282" y="73" width="26" height="18" rx="3" fill="#6A5ACD"/><text x="295" y="86" text-anchor="middle" font-family="'IBM Plex Sans','Segoe UI',Helvetica,Arial,sans-serif" font-size="9.5" font-weight="700" fill="#FFFFFF">ID</text><rect x="312" y="73" width="26" height="18" rx="3" fill="#9B59B6"/><text x="325" y="86" text-anchor="middle" font-family="'IBM Plex Sans','Segoe UI',Helvetica,Arial,sans-serif" font-size="9.5" font-weight="700" fill="#FFFFFF">RR</text><rect x="342" y="73" width="26" height="18" rx="3" fill="#E08E0B"/><text x="355" y="86" text-anchor="middle" font-family="'IBM Plex Sans','Segoe UI',Helvetica,Arial,sans-serif" font-size="9.5" font-weight="700" fill="#FFFFFF">EX</text><rect x="372" y="73" width="26" height="18" rx="3" fill="#27AE60"/><text x="385" y="86" text-anchor="middle" font-family="'IBM Plex Sans','Segoe UI',Helvetica,Arial,sans-serif" font-size="9.5" font-weight="700" fill="#FFFFFF">MEM</text><rect x="402" y="73" width="26" height="18" rx="3" fill="#C0392B"/><text x="415" y="86" text-anchor="middle" font-family="'IBM Plex Sans','Segoe UI',Helvetica,Arial,sans-serif" font-size="9.5" font-weight="700" fill="#FFFFFF">WB</text><text x="16" y="110" font-family="'IBM Plex Mono','SFMono-Regular',Consolas,monospace" font-size="11" fill="#6B7A70">0004</text><text x="56" y="110" font-family="'IBM Plex Mono','SFMono-Regular',Consolas,monospace" font-size="11.5" fill="#17251D">addi s0, s0, 136</text><rect x="282" y="97" width="26" height="18" rx="3" fill="#3C8DBC"/><text x="295" y="110" text-anchor="middle" font-family="'IBM Plex Sans','Segoe UI',Helvetica,Arial,sans-serif" font-size="9.5" font-weight="700" fill="#FFFFFF">IF</text><rect x="312" y="97" width="26" height="18" rx="3" fill="#6A5ACD"/><text x="325" y="110" text-anchor="middle" font-family="'IBM Plex Sans','Segoe UI',Helvetica,Arial,sans-serif" font-size="9.5" font-weight="700" fill="#FFFFFF">ID</text><rect x="342" y="97" width="26" height="18" rx="3" fill="#9B59B6"/><text x="355" y="110" text-anchor="middle" font-family="'IBM Plex Sans','Segoe UI',Helvetica,Arial,sans-serif" font-size="9.5" font-weight="700" fill="#FFFFFF">RR</text><rect x="372" y="97" width="26" height="18" rx="3" fill="#E08E0B"/><text x="385" y="110" text-anchor="middle" font-family="'IBM Plex Sans','Segoe UI',Helvetica,Arial,sans-serif" font-size="9.5" font-weight="700" fill="#FFFFFF">EX</text><circle cx="396" cy="99" r="4" fill="#FFFFFF" stroke="#E08E0B" stroke-width="2"/><rect x="402" y="97" width="26" height="18" rx="3" fill="#27AE60"/><text x="415" y="110" text-anchor="middle" font-family="'IBM Plex Sans','Segoe UI',Helvetica,Arial,sans-serif" font-size="9.5" font-weight="700" fill="#FFFFFF">MEM</text><rect x="432" y="97" width="26" height="18" rx="3" fill="#C0392B"/><text x="445" y="110" text-anchor="middle" font-family="'IBM Plex Sans','Segoe UI',Helvetica,Arial,sans-serif" font-size="9.5" font-weight="700" fill="#FFFFFF">WB</text><rect x="8" y="118" width="1158" height="24" fill="#EEF2EA" fill-opacity="0.6"/><text x="16" y="134" font-family="'IBM Plex Mono','SFMono-Regular',Consolas,monospace" font-size="11" fill="#6B7A70">0008</text><text x="56" y="134" font-family="'IBM Plex Mono','SFMono-Regular',Consolas,monospace" font-size="11.5" fill="#17251D">addi s1, zero, 10</text><rect x="312" y="121" width="26" height="18" rx="3" fill="#3C8DBC"/><text x="325" y="134" text-anchor="middle" font-family="'IBM Plex Sans','Segoe UI',Helvetica,Arial,sans-serif" font-size="9.5" font-weight="700" fill="#FFFFFF">IF</text><rect x="342" y="121" width="26" height="18" rx="3" fill="#6A5ACD"/><text x="355" y="134" text-anchor="middle" font-family="'IBM Plex Sans','Segoe UI',Helvetica,Arial,sans-serif" font-size="9.5" font-weight="700" fill="#FFFFFF">ID</text><rect x="372" y="121" width="26" height="18" rx="3" fill="#9B59B6"/><text x="385" y="134" text-anchor="middle" font-family="'IBM Plex Sans','Segoe UI',Helvetica,Arial,sans-serif" font-size="9.5" font-weight="700" fill="#FFFFFF">RR</text><rect x="402" y="121" width="26" height="18" rx="3" fill="#E08E0B"/><text x="415" y="134" text-anchor="middle" font-family="'IBM Plex Sans','Segoe UI',Helvetica,Arial,sans-serif" font-size="9.5" font-weight="700" fill="#FFFFFF">EX</text><rect x="432" y="121" width="26" height="18" rx="3" fill="#27AE60"/><text x="445" y="134" text-anchor="middle" font-family="'IBM Plex Sans','Segoe UI',Helvetica,Arial,sans-serif" font-size="9.5" font-weight="700" fill="#FFFFFF">MEM</text><rect x="462" y="121" width="26" height="18" rx="3" fill="#C0392B"/><text x="475" y="134" text-anchor="middle" font-family="'IBM Plex Sans','Segoe UI',Helvetica,Arial,sans-serif" font-size="9.5" font-weight="700" fill="#FFFFFF">WB</text><text x="16" y="158" font-family="'IBM Plex Mono','SFMono-Regular',Consolas,monospace" font-size="11" fill="#6B7A70">000c</text><text x="56" y="158" font-family="'IBM Plex Mono','SFMono-Regular',Consolas,monospace" font-size="11.5" fill="#17251D">addi t0, zero, 0</text><rect x="342" y="145" width="26" height="18" rx="3" fill="#3C8DBC"/><text x="355" y="158" text-anchor="middle" font-family="'IBM Plex Sans','Segoe UI',Helvetica,Arial,sans-serif" font-size="9.5" font-weight="700" fill="#FFFFFF">IF</text><rect x="372" y="145" width="26" height="18" rx="3" fill="#6A5ACD"/><text x="385" y="158" text-anchor="middle" font-family="'IBM Plex Sans','Segoe UI',Helvetica,Arial,sans-serif" font-size="9.5" font-weight="700" fill="#FFFFFF">ID</text><rect x="402" y="145" width="26" height="18" rx="3" fill="#9B59B6"/><text x="415" y="158" text-anchor="middle" font-family="'IBM Plex Sans','Segoe UI',Helvetica,Arial,sans-serif" font-size="9.5" font-weight="700" fill="#FFFFFF">RR</text><rect x="432" y="145" width="26" height="18" rx="3" fill="#E08E0B"/><text x="445" y="158" text-anchor="middle" font-family="'IBM Plex Sans','Segoe UI',Helvetica,Arial,sans-serif" font-size="9.5" font-weight="700" fill="#FFFFFF">EX</text><rect x="462" y="145" width="26" height="18" rx="3" fill="#27AE60"/><text x="475" y="158" text-anchor="middle" font-family="'IBM Plex Sans','Segoe UI',Helvetica,Arial,sans-serif" font-size="9.5" font-weight="700" fill="#FFFFFF">MEM</text><rect x="492" y="145" width="26" height="18" rx="3" fill="#C0392B"/><text x="505" y="158" text-anchor="middle" font-family="'IBM Plex Sans','Segoe UI',Helvetica,Arial,sans-serif" font-size="9.5" font-weight="700" fill="#FFFFFF">WB</text><rect x="8" y="166" width="1158" height="24" fill="#EEF2EA" fill-opacity="0.6"/><text x="16" y="182" font-family="'IBM Plex Mono','SFMono-Regular',Consolas,monospace" font-size="11" fill="#6B7A70">0010</text><text x="56" y="182" font-family="'IBM Plex Mono','SFMono-Regular',Consolas,monospace" font-size="11.5" fill="#17251D">addi t1, zero, 1</text><rect x="372" y="169" width="26" height="18" rx="3" fill="#3C8DBC"/><text x="385" y="182" text-anchor="middle" font-family="'IBM Plex Sans','Segoe UI',Helvetica,Arial,sans-serif" font-size="9.5" font-weight="700" fill="#FFFFFF">IF</text><rect x="402" y="169" width="26" height="18" rx="3" fill="#6A5ACD"/><text x="415" y="182" text-anchor="middle" font-family="'IBM Plex Sans','Segoe UI',Helvetica,Arial,sans-serif" font-size="9.5" font-weight="700" fill="#FFFFFF">ID</text><rect x="432" y="169" width="26" height="18" rx="3" fill="#9B59B6"/><text x="445" y="182" text-anchor="middle" font-family="'IBM Plex Sans','Segoe UI',Helvetica,Arial,sans-serif" font-size="9.5" font-weight="700" fill="#FFFFFF">RR</text><rect x="462" y="169" width="26" height="18" rx="3" fill="#E08E0B"/><text x="475" y="182" text-anchor="middle" font-family="'IBM Plex Sans','Segoe UI',Helvetica,Arial,sans-serif" font-size="9.5" font-weight="700" fill="#FFFFFF">EX</text><rect x="492" y="169" width="26" height="18" rx="3" fill="#27AE60"/><text x="505" y="182" text-anchor="middle" font-family="'IBM Plex Sans','Segoe UI',Helvetica,Arial,sans-serif" font-size="9.5" font-weight="700" fill="#FFFFFF">MEM</text><rect x="522" y="169" width="26" height="18" rx="3" fill="#C0392B"/><text x="535" y="182" text-anchor="middle" font-family="'IBM Plex Sans','Segoe UI',Helvetica,Arial,sans-serif" font-size="9.5" font-weight="700" fill="#FFFFFF">WB</text><text x="16" y="206" font-family="'IBM Plex Mono','SFMono-Regular',Consolas,monospace" font-size="11" fill="#6B7A70">0014</text><text x="56" y="206" font-family="'IBM Plex Mono','SFMono-Regular',Consolas,monospace" font-size="11.5" fill="#17251D">bge t1, s1, 0x40</text><rect x="402" y="193" width="26" height="18" rx="3" fill="#3C8DBC"/><text x="415" y="206" text-anchor="middle" font-family="'IBM Plex Sans','Segoe UI',Helvetica,Arial,sans-serif" font-size="9.5" font-weight="700" fill="#FFFFFF">IF</text><rect x="432" y="193" width="26" height="18" rx="3" fill="#6A5ACD"/><text x="445" y="206" text-anchor="middle" font-family="'IBM Plex Sans','Segoe UI',Helvetica,Arial,sans-serif" font-size="9.5" font-weight="700" fill="#FFFFFF">ID</text><rect x="462" y="193" width="26" height="18" rx="3" fill="#9B59B6"/><text x="475" y="206" text-anchor="middle" font-family="'IBM Plex Sans','Segoe UI',Helvetica,Arial,sans-serif" font-size="9.5" font-weight="700" fill="#FFFFFF">RR</text><rect x="492" y="193" width="26" height="18" rx="3" fill="#E08E0B"/><text x="505" y="206" text-anchor="middle" font-family="'IBM Plex Sans','Segoe UI',Helvetica,Arial,sans-serif" font-size="9.5" font-weight="700" fill="#FFFFFF">EX</text><circle cx="516" cy="195" r="4" fill="#FFFFFF" stroke="#E08E0B" stroke-width="2"/><rect x="522" y="193" width="26" height="18" rx="3" fill="#27AE60"/><text x="535" y="206" text-anchor="middle" font-family="'IBM Plex Sans','Segoe UI',Helvetica,Arial,sans-serif" font-size="9.5" font-weight="700" fill="#FFFFFF">MEM</text><rect x="552" y="193" width="26" height="18" rx="3" fill="#C0392B"/><text x="565" y="206" text-anchor="middle" font-family="'IBM Plex Sans','Segoe UI',Helvetica,Arial,sans-serif" font-size="9.5" font-weight="700" fill="#FFFFFF">WB</text><rect x="8" y="214" width="1158" height="24" fill="#EEF2EA" fill-opacity="0.6"/><text x="16" y="230" font-family="'IBM Plex Mono','SFMono-Regular',Consolas,monospace" font-size="11" fill="#6B7A70">0018</text><text x="56" y="230" font-family="'IBM Plex Mono','SFMono-Regular',Consolas,monospace" font-size="11.5" fill="#17251D">slli t2, t1, 3</text><rect x="432" y="217" width="26" height="18" rx="3" fill="#3C8DBC"/><text x="445" y="230" text-anchor="middle" font-family="'IBM Plex Sans','Segoe UI',Helvetica,Arial,sans-serif" font-size="9.5" font-weight="700" fill="#FFFFFF">IF</text><rect x="462" y="217" width="26" height="18" rx="3" fill="#6A5ACD"/><text x="475" y="230" text-anchor="middle" font-family="'IBM Plex Sans','Segoe UI',Helvetica,Arial,sans-serif" font-size="9.5" font-weight="700" fill="#FFFFFF">ID</text><rect x="492" y="217" width="26" height="18" rx="3" fill="#9B59B6"/><text x="505" y="230" text-anchor="middle" font-family="'IBM Plex Sans','Segoe UI',Helvetica,Arial,sans-serif" font-size="9.5" font-weight="700" fill="#FFFFFF">RR</text><rect x="522" y="217" width="26" height="18" rx="3" fill="#E08E0B"/><text x="535" y="230" text-anchor="middle" font-family="'IBM Plex Sans','Segoe UI',Helvetica,Arial,sans-serif" font-size="9.5" font-weight="700" fill="#FFFFFF">EX</text><circle cx="546" cy="219" r="4" fill="#FFFFFF" stroke="#E08E0B" stroke-width="2"/><rect x="552" y="217" width="26" height="18" rx="3" fill="#27AE60"/><text x="565" y="230" text-anchor="middle" font-family="'IBM Plex Sans','Segoe UI',Helvetica,Arial,sans-serif" font-size="9.5" font-weight="700" fill="#FFFFFF">MEM</text><rect x="582" y="217" width="26" height="18" rx="3" fill="#C0392B"/><text x="595" y="230" text-anchor="middle" font-family="'IBM Plex Sans','Segoe UI',Helvetica,Arial,sans-serif" font-size="9.5" font-weight="700" fill="#FFFFFF">WB</text><text x="16" y="254" font-family="'IBM Plex Mono','SFMono-Regular',Consolas,monospace" font-size="11" fill="#6B7A70">001c</text><text x="56" y="254" font-family="'IBM Plex Mono','SFMono-Regular',Consolas,monospace" font-size="11.5" fill="#17251D">add t2, s0, t2</text><rect x="462" y="241" width="26" height="18" rx="3" fill="#3C8DBC"/><text x="475" y="254" text-anchor="middle" font-family="'IBM Plex Sans','Segoe UI',Helvetica,Arial,sans-serif" font-size="9.5" font-weight="700" fill="#FFFFFF">IF</text><rect x="492" y="241" width="26" height="18" rx="3" fill="#6A5ACD"/><text x="505" y="254" text-anchor="middle" font-family="'IBM Plex Sans','Segoe UI',Helvetica,Arial,sans-serif" font-size="9.5" font-weight="700" fill="#FFFFFF">ID</text><rect x="522" y="241" width="26" height="18" rx="3" fill="#9B59B6"/><text x="535" y="254" text-anchor="middle" font-family="'IBM Plex Sans','Segoe UI',Helvetica,Arial,sans-serif" font-size="9.5" font-weight="700" fill="#FFFFFF">RR</text><rect x="552" y="241" width="26" height="18" rx="3" fill="#E08E0B"/><text x="565" y="254" text-anchor="middle" font-family="'IBM Plex Sans','Segoe UI',Helvetica,Arial,sans-serif" font-size="9.5" font-weight="700" fill="#FFFFFF">EX</text><circle cx="576" cy="243" r="4" fill="#FFFFFF" stroke="#E08E0B" stroke-width="2"/><rect x="582" y="241" width="26" height="18" rx="3" fill="#27AE60"/><text x="595" y="254" text-anchor="middle" font-family="'IBM Plex Sans','Segoe UI',Helvetica,Arial,sans-serif" font-size="9.5" font-weight="700" fill="#FFFFFF">MEM</text><rect x="612" y="241" width="26" height="18" rx="3" fill="#C0392B"/><text x="625" y="254" text-anchor="middle" font-family="'IBM Plex Sans','Segoe UI',Helvetica,Arial,sans-serif" font-size="9.5" font-weight="700" fill="#FFFFFF">WB</text><rect x="8" y="262" width="1158" height="24" fill="#EEF2EA" fill-opacity="0.6"/><text x="16" y="278" font-family="'IBM Plex Mono','SFMono-Regular',Consolas,monospace" font-size="11" fill="#6B7A70">0020</text><text x="56" y="278" font-family="'IBM Plex Mono','SFMono-Regular',Consolas,monospace" font-size="11.5" fill="#17251D">ld t3, -8(t2)</text><rect x="492" y="265" width="26" height="18" rx="3" fill="#3C8DBC"/><text x="505" y="278" text-anchor="middle" font-family="'IBM Plex Sans','Segoe UI',Helvetica,Arial,sans-serif" font-size="9.5" font-weight="700" fill="#FFFFFF">IF</text><rect x="522" y="265" width="26" height="18" rx="3" fill="#6A5ACD"/><text x="535" y="278" text-anchor="middle" font-family="'IBM Plex Sans','Segoe UI',Helvetica,Arial,sans-serif" font-size="9.5" font-weight="700" fill="#FFFFFF">ID</text><rect x="552" y="265" width="26" height="18" rx="3" fill="#9B59B6"/><text x="565" y="278" text-anchor="middle" font-family="'IBM Plex Sans','Segoe UI',Helvetica,Arial,sans-serif" font-size="9.5" font-weight="700" fill="#FFFFFF">RR</text><rect x="582" y="265" width="26" height="18" rx="3" fill="#E08E0B"/><text x="595" y="278" text-anchor="middle" font-family="'IBM Plex Sans','Segoe UI',Helvetica,Arial,sans-serif" font-size="9.5" font-weight="700" fill="#FFFFFF">EX</text><circle cx="606" cy="267" r="4" fill="#FFFFFF" stroke="#E08E0B" stroke-width="2"/><rect x="612" y="265" width="26" height="18" rx="3" fill="#27AE60"/><text x="625" y="278" text-anchor="middle" font-family="'IBM Plex Sans','Segoe UI',Helvetica,Arial,sans-serif" font-size="9.5" font-weight="700" fill="#FFFFFF">MEM</text><rect x="642" y="265" width="26" height="18" rx="3" fill="#C0392B"/><text x="655" y="278" text-anchor="middle" font-family="'IBM Plex Sans','Segoe UI',Helvetica,Arial,sans-serif" font-size="9.5" font-weight="700" fill="#FFFFFF">WB</text><text x="16" y="302" font-family="'IBM Plex Mono','SFMono-Regular',Consolas,monospace" font-size="11" fill="#6B7A70">0024</text><text x="56" y="302" font-family="'IBM Plex Mono','SFMono-Regular',Consolas,monospace" font-size="11.5" fill="#17251D">ld t4, 0(t2)</text><rect x="522" y="289" width="26" height="18" rx="3" fill="#3C8DBC"/><text x="535" y="302" text-anchor="middle" font-family="'IBM Plex Sans','Segoe UI',Helvetica,Arial,sans-serif" font-size="9.5" font-weight="700" fill="#FFFFFF">IF</text><rect x="552" y="289" width="26" height="18" rx="3" fill="#6A5ACD"/><text x="565" y="302" text-anchor="middle" font-family="'IBM Plex Sans','Segoe UI',Helvetica,Arial,sans-serif" font-size="9.5" font-weight="700" fill="#FFFFFF">ID</text><rect x="582" y="289" width="26" height="18" rx="3" fill="#9B59B6"/><text x="595" y="302" text-anchor="middle" font-family="'IBM Plex Sans','Segoe UI',Helvetica,Arial,sans-serif" font-size="9.5" font-weight="700" fill="#FFFFFF">RR</text><rect x="612" y="289" width="26" height="18" rx="3" fill="#E08E0B"/><text x="625" y="302" text-anchor="middle" font-family="'IBM Plex Sans','Segoe UI',Helvetica,Arial,sans-serif" font-size="9.5" font-weight="700" fill="#FFFFFF">EX</text><circle cx="636" cy="291" r="4" fill="#FFFFFF" stroke="#E08E0B" stroke-width="2"/><rect x="642" y="289" width="26" height="18" rx="3" fill="#27AE60"/><text x="655" y="302" text-anchor="middle" font-family="'IBM Plex Sans','Segoe UI',Helvetica,Arial,sans-serif" font-size="9.5" font-weight="700" fill="#FFFFFF">MEM</text><rect x="672" y="289" width="26" height="18" rx="3" fill="#C0392B"/><text x="685" y="302" text-anchor="middle" font-family="'IBM Plex Sans','Segoe UI',Helvetica,Arial,sans-serif" font-size="9.5" font-weight="700" fill="#FFFFFF">WB</text><rect x="8" y="310" width="1158" height="24" fill="#EEF2EA" fill-opacity="0.6"/><text x="16" y="326" font-family="'IBM Plex Mono','SFMono-Regular',Consolas,monospace" font-size="11" fill="#6B7A70">0028</text><text x="56" y="326" font-family="'IBM Plex Mono','SFMono-Regular',Consolas,monospace" font-size="11.5" fill="#17251D">bge t4, t3, 0x38</text><rect x="552" y="313" width="26" height="18" rx="3" fill="#3C8DBC"/><text x="565" y="326" text-anchor="middle" font-family="'IBM Plex Sans','Segoe UI',Helvetica,Arial,sans-serif" font-size="9.5" font-weight="700" fill="#FFFFFF">IF</text><rect x="582" y="313" width="26" height="18" rx="3" fill="#6A5ACD"/><text x="595" y="326" text-anchor="middle" font-family="'IBM Plex Sans','Segoe UI',Helvetica,Arial,sans-serif" font-size="9.5" font-weight="700" fill="#FFFFFF">ID</text><rect x="612" y="313" width="26" height="18" rx="3" fill="#9B59B6"/><rect x="612" y="313" width="26" height="18" rx="3" fill="url(#hatch)"/><text x="625" y="326" text-anchor="middle" font-family="'IBM Plex Sans','Segoe UI',Helvetica,Arial,sans-serif" font-size="9.5" font-weight="700" fill="#FFFFFF">RR</text><rect x="642" y="313" width="26" height="18" rx="3" fill="#9B59B6"/><text x="655" y="326" text-anchor="middle" font-family="'IBM Plex Sans','Segoe UI',Helvetica,Arial,sans-serif" font-size="9.5" font-weight="700" fill="#FFFFFF">RR</text><rect x="672" y="313" width="26" height="18" rx="3" fill="#E08E0B"/><text x="685" y="326" text-anchor="middle" font-family="'IBM Plex Sans','Segoe UI',Helvetica,Arial,sans-serif" font-size="9.5" font-weight="700" fill="#FFFFFF">EX</text><circle cx="696" cy="315" r="4" fill="#FFFFFF" stroke="#E08E0B" stroke-width="2"/><rect x="702" y="313" width="26" height="18" rx="3" fill="#27AE60"/><text x="715" y="326" text-anchor="middle" font-family="'IBM Plex Sans','Segoe UI',Helvetica,Arial,sans-serif" font-size="9.5" font-weight="700" fill="#FFFFFF">MEM</text><rect x="732" y="313" width="26" height="18" rx="3" fill="#C0392B"/><text x="745" y="326" text-anchor="middle" font-family="'IBM Plex Sans','Segoe UI',Helvetica,Arial,sans-serif" font-size="9.5" font-weight="700" fill="#FFFFFF">WB</text><text x="16" y="350" font-family="'IBM Plex Mono','SFMono-Regular',Consolas,monospace" font-size="11" fill="#6B7A70">002c</text><text x="56" y="350" font-family="'IBM Plex Mono','SFMono-Regular',Consolas,monospace" font-size="11.5" fill="#17251D">sd t4, -8(t2)</text><rect x="582" y="337" width="26" height="18" rx="3" fill="#3C8DBC"/><text x="595" y="350" text-anchor="middle" font-family="'IBM Plex Sans','Segoe UI',Helvetica,Arial,sans-serif" font-size="9.5" font-weight="700" fill="#FFFFFF">IF</text><rect x="612" y="337" width="26" height="18" rx="3" fill="#6A5ACD"/><rect x="612" y="337" width="26" height="18" rx="3" fill="url(#hatch)"/><text x="625" y="350" text-anchor="middle" font-family="'IBM Plex Sans','Segoe UI',Helvetica,Arial,sans-serif" font-size="9.5" font-weight="700" fill="#FFFFFF">ID</text><rect x="642" y="337" width="26" height="18" rx="3" fill="#6A5ACD"/><text x="655" y="350" text-anchor="middle" font-family="'IBM Plex Sans','Segoe UI',Helvetica,Arial,sans-serif" font-size="9.5" font-weight="700" fill="#FFFFFF">ID</text><rect x="672" y="337" width="26" height="18" rx="3" fill="#9B59B6"/><text x="685" y="350" text-anchor="middle" font-family="'IBM Plex Sans','Segoe UI',Helvetica,Arial,sans-serif" font-size="9.5" font-weight="700" fill="#FFFFFF">RR</text><rect x="702" y="337" width="26" height="18" rx="3" fill="#E08E0B"/><text x="715" y="350" text-anchor="middle" font-family="'IBM Plex Sans','Segoe UI',Helvetica,Arial,sans-serif" font-size="9.5" font-weight="700" fill="#FFFFFF">EX</text><rect x="732" y="337" width="26" height="18" rx="3" fill="#27AE60"/><text x="745" y="350" text-anchor="middle" font-family="'IBM Plex Sans','Segoe UI',Helvetica,Arial,sans-serif" font-size="9.5" font-weight="700" fill="#FFFFFF">MEM</text><rect x="762" y="337" width="26" height="18" rx="3" fill="#C0392B"/><text x="775" y="350" text-anchor="middle" font-family="'IBM Plex Sans','Segoe UI',Helvetica,Arial,sans-serif" font-size="9.5" font-weight="700" fill="#FFFFFF">WB</text><rect x="8" y="358" width="1158" height="24" fill="#EEF2EA" fill-opacity="0.6"/><text x="16" y="374" font-family="'IBM Plex Mono','SFMono-Regular',Consolas,monospace" font-size="11" fill="#6B7A70">0030</text><text x="56" y="374" font-family="'IBM Plex Mono','SFMono-Regular',Consolas,monospace" font-size="11.5" fill="#17251D">sd t3, 0(t2)</text><rect x="612" y="361" width="26" height="18" rx="3" fill="#3C8DBC"/><rect x="612" y="361" width="26" height="18" rx="3" fill="url(#hatch)"/><text x="625" y="374" text-anchor="middle" font-family="'IBM Plex Sans','Segoe UI',Helvetica,Arial,sans-serif" font-size="9.5" font-weight="700" fill="#FFFFFF">IF</text><rect x="642" y="361" width="26" height="18" rx="3" fill="#3C8DBC"/><text x="655" y="374" text-anchor="middle" font-family="'IBM Plex Sans','Segoe UI',Helvetica,Arial,sans-serif" font-size="9.5" font-weight="700" fill="#FFFFFF">IF</text><rect x="672" y="361" width="26" height="18" rx="3" fill="#6A5ACD"/><text x="685" y="374" text-anchor="middle" font-family="'IBM Plex Sans','Segoe UI',Helvetica,Arial,sans-serif" font-size="9.5" font-weight="700" fill="#FFFFFF">ID</text><rect x="702" y="361" width="26" height="18" rx="3" fill="#9B59B6"/><text x="715" y="374" text-anchor="middle" font-family="'IBM Plex Sans','Segoe UI',Helvetica,Arial,sans-serif" font-size="9.5" font-weight="700" fill="#FFFFFF">RR</text><rect x="732" y="361" width="26" height="18" rx="3" fill="#E08E0B"/><text x="745" y="374" text-anchor="middle" font-family="'IBM Plex Sans','Segoe UI',Helvetica,Arial,sans-serif" font-size="9.5" font-weight="700" fill="#FFFFFF">EX</text><rect x="762" y="361" width="26" height="18" rx="3" fill="#27AE60"/><text x="775" y="374" text-anchor="middle" font-family="'IBM Plex Sans','Segoe UI',Helvetica,Arial,sans-serif" font-size="9.5" font-weight="700" fill="#FFFFFF">MEM</text><rect x="792" y="361" width="26" height="18" rx="3" fill="#C0392B"/><text x="805" y="374" text-anchor="middle" font-family="'IBM Plex Sans','Segoe UI',Helvetica,Arial,sans-serif" font-size="9.5" font-weight="700" fill="#FFFFFF">WB</text><text x="16" y="398" font-family="'IBM Plex Mono','SFMono-Regular',Consolas,monospace" font-size="11" fill="#6B7A70">0034</text><text x="56" y="398" font-family="'IBM Plex Mono','SFMono-Regular',Consolas,monospace" font-size="11.5" fill="#17251D">addi t0, zero, 1</text><rect x="672" y="385" width="26" height="18" rx="3" fill="#3C8DBC"/><text x="685" y="398" text-anchor="middle" font-family="'IBM Plex Sans','Segoe UI',Helvetica,Arial,sans-serif" font-size="9.5" font-weight="700" fill="#FFFFFF">IF</text><rect x="702" y="385" width="26" height="18" rx="3" fill="#6A5ACD"/><text x="715" y="398" text-anchor="middle" font-family="'IBM Plex Sans','Segoe UI',Helvetica,Arial,sans-serif" font-size="9.5" font-weight="700" fill="#FFFFFF">ID</text><rect x="732" y="385" width="26" height="18" rx="3" fill="#9B59B6"/><text x="745" y="398" text-anchor="middle" font-family="'IBM Plex Sans','Segoe UI',Helvetica,Arial,sans-serif" font-size="9.5" font-weight="700" fill="#FFFFFF">RR</text><rect x="762" y="385" width="26" height="18" rx="3" fill="#E08E0B"/><text x="775" y="398" text-anchor="middle" font-family="'IBM Plex Sans','Segoe UI',Helvetica,Arial,sans-serif" font-size="9.5" font-weight="700" fill="#FFFFFF">EX</text><rect x="792" y="385" width="26" height="18" rx="3" fill="#27AE60"/><text x="805" y="398" text-anchor="middle" font-family="'IBM Plex Sans','Segoe UI',Helvetica,Arial,sans-serif" font-size="9.5" font-weight="700" fill="#FFFFFF">MEM</text><rect x="822" y="385" width="26" height="18" rx="3" fill="#C0392B"/><text x="835" y="398" text-anchor="middle" font-family="'IBM Plex Sans','Segoe UI',Helvetica,Arial,sans-serif" font-size="9.5" font-weight="700" fill="#FFFFFF">WB</text><rect x="8" y="406" width="1158" height="24" fill="#EEF2EA" fill-opacity="0.6"/><text x="16" y="422" font-family="'IBM Plex Mono','SFMono-Regular',Consolas,monospace" font-size="11" fill="#6B7A70">0038</text><text x="56" y="422" font-family="'IBM Plex Mono','SFMono-Regular',Consolas,monospace" font-size="11.5" fill="#17251D">addi t1, t1, 1</text><rect x="702" y="409" width="26" height="18" rx="3" fill="#3C8DBC"/><text x="715" y="422" text-anchor="middle" font-family="'IBM Plex Sans','Segoe UI',Helvetica,Arial,sans-serif" font-size="9.5" font-weight="700" fill="#FFFFFF">IF</text><rect x="732" y="409" width="26" height="18" rx="3" fill="#6A5ACD"/><text x="745" y="422" text-anchor="middle" font-family="'IBM Plex Sans','Segoe UI',Helvetica,Arial,sans-serif" font-size="9.5" font-weight="700" fill="#FFFFFF">ID</text><rect x="762" y="409" width="26" height="18" rx="3" fill="#9B59B6"/><text x="775" y="422" text-anchor="middle" font-family="'IBM Plex Sans','Segoe UI',Helvetica,Arial,sans-serif" font-size="9.5" font-weight="700" fill="#FFFFFF">RR</text><rect x="792" y="409" width="26" height="18" rx="3" fill="#E08E0B"/><text x="805" y="422" text-anchor="middle" font-family="'IBM Plex Sans','Segoe UI',Helvetica,Arial,sans-serif" font-size="9.5" font-weight="700" fill="#FFFFFF">EX</text><rect x="822" y="409" width="26" height="18" rx="3" fill="#27AE60"/><text x="835" y="422" text-anchor="middle" font-family="'IBM Plex Sans','Segoe UI',Helvetica,Arial,sans-serif" font-size="9.5" font-weight="700" fill="#FFFFFF">MEM</text><rect x="852" y="409" width="26" height="18" rx="3" fill="#C0392B"/><text x="865" y="422" text-anchor="middle" font-family="'IBM Plex Sans','Segoe UI',Helvetica,Arial,sans-serif" font-size="9.5" font-weight="700" fill="#FFFFFF">WB</text><text x="16" y="446" font-family="'IBM Plex Mono','SFMono-Regular',Consolas,monospace" font-size="11" fill="#6B7A70">003c</text><text x="56" y="446" font-family="'IBM Plex Mono','SFMono-Regular',Consolas,monospace" font-size="11.5" fill="#17251D">jal zero, 0x14</text><rect x="732" y="433" width="26" height="18" rx="3" fill="#3C8DBC"/><text x="745" y="446" text-anchor="middle" font-family="'IBM Plex Sans','Segoe UI',Helvetica,Arial,sans-serif" font-size="9.5" font-weight="700" fill="#FFFFFF">IF</text><rect x="762" y="433" width="26" height="18" rx="3" fill="#6A5ACD"/><text x="775" y="446" text-anchor="middle" font-family="'IBM Plex Sans','Segoe UI',Helvetica,Arial,sans-serif" font-size="9.5" font-weight="700" fill="#FFFFFF">ID</text><rect x="792" y="433" width="26" height="18" rx="3" fill="#9B59B6"/><text x="805" y="446" text-anchor="middle" font-family="'IBM Plex Sans','Segoe UI',Helvetica,Arial,sans-serif" font-size="9.5" font-weight="700" fill="#FFFFFF">RR</text><rect x="822" y="433" width="26" height="18" rx="3" fill="#E08E0B"/><text x="835" y="446" text-anchor="middle" font-family="'IBM Plex Sans','Segoe UI',Helvetica,Arial,sans-serif" font-size="9.5" font-weight="700" fill="#FFFFFF">EX</text><rect x="852" y="433" width="26" height="18" rx="3" fill="#27AE60"/><text x="865" y="446" text-anchor="middle" font-family="'IBM Plex Sans','Segoe UI',Helvetica,Arial,sans-serif" font-size="9.5" font-weight="700" fill="#FFFFFF">MEM</text><rect x="882" y="433" width="26" height="18" rx="3" fill="#C0392B"/><text x="895" y="446" text-anchor="middle" font-family="'IBM Plex Sans','Segoe UI',Helvetica,Arial,sans-serif" font-size="9.5" font-weight="700" fill="#FFFFFF">WB</text><rect x="8" y="454" width="1158" height="24" fill="#EEF2EA" fill-opacity="0.6"/><text x="16" y="470" font-family="'IBM Plex Mono','SFMono-Regular',Consolas,monospace" font-size="11" fill="#9AA59D">0040</text><text x="56" y="470" font-family="'IBM Plex Mono','SFMono-Regular',Consolas,monospace" font-size="11.5" fill="#9AA59D" text-decoration="line-through">bne t0, zero, 0xc</text><rect x="762" y="457" width="26" height="18" rx="3" fill="#B4BDB6" fill-opacity="0.45"/><text x="775" y="470" text-anchor="middle" font-family="'IBM Plex Sans','Segoe UI',Helvetica,Arial,sans-serif" font-size="9.5" font-weight="700" fill="#FFFFFF">IF</text><rect x="792" y="457" width="26" height="18" rx="3" fill="#B4BDB6" fill-opacity="0.45"/><text x="805" y="470" text-anchor="middle" font-family="'IBM Plex Sans','Segoe UI',Helvetica,Arial,sans-serif" font-size="9.5" font-weight="700" fill="#FFFFFF">ID</text><rect x="822" y="457" width="26" height="18" rx="3" fill="#B4BDB6" fill-opacity="0.45"/><text x="835" y="470" text-anchor="middle" font-family="'IBM Plex Sans','Segoe UI',Helvetica,Arial,sans-serif" font-size="9.5" font-weight="700" fill="#FFFFFF">RR</text><text x="16" y="494" font-family="'IBM Plex Mono','SFMono-Regular',Consolas,monospace" font-size="11" fill="#9AA59D">0044</text><text x="56" y="494" font-family="'IBM Plex Mono','SFMono-Regular',Consolas,monospace" font-size="11.5" fill="#9AA59D" text-decoration="line-through">addi a0, zero, 1</text><rect x="792" y="481" width="26" height="18" rx="3" fill="#B4BDB6" fill-opacity="0.45"/><text x="805" y="494" text-anchor="middle" font-family="'IBM Plex Sans','Segoe UI',Helvetica,Arial,sans-serif" font-size="9.5" font-weight="700" fill="#FFFFFF">IF</text><rect x="822" y="481" width="26" height="18" rx="3" fill="#B4BDB6" fill-opacity="0.45"/><text x="835" y="494" text-anchor="middle" font-family="'IBM Plex Sans','Segoe UI',Helvetica,Arial,sans-serif" font-size="9.5" font-weight="700" fill="#FFFFFF">ID</text><rect x="8" y="502" width="1158" height="24" fill="#EEF2EA" fill-opacity="0.6"/><text x="16" y="518" font-family="'IBM Plex Mono','SFMono-Regular',Consolas,monospace" font-size="11" fill="#9AA59D">0048</text><text x="56" y="518" font-family="'IBM Plex Mono','SFMono-Regular',Consolas,monospace" font-size="11.5" fill="#9AA59D" text-decoration="line-through">addi a1, zero, 0</text><rect x="822" y="505" width="26" height="18" rx="3" fill="#B4BDB6" fill-opacity="0.45"/><text x="835" y="518" text-anchor="middle" font-family="'IBM Plex Sans','Segoe UI',Helvetica,Arial,sans-serif" font-size="9.5" font-weight="700" fill="#FFFFFF">IF</text><text x="16" y="542" font-family="'IBM Plex Mono','SFMono-Regular',Consolas,monospace" font-size="11" fill="#6B7A70">0014</text><text x="56" y="542" font-family="'IBM Plex Mono','SFMono-Regular',Consolas,monospace" font-size="11.5" fill="#17251D">bge t1, s1, 0x40</text><rect x="852" y="529" width="26" height="18" rx="3" fill="#3C8DBC"/><text x="865" y="542" text-anchor="middle" font-family="'IBM Plex Sans','Segoe UI',Helvetica,Arial,sans-serif" font-size="9.5" font-weight="700" fill="#FFFFFF">IF</text><rect x="882" y="529" width="26" height="18" rx="3" fill="#6A5ACD"/><text x="895" y="542" text-anchor="middle" font-family="'IBM Plex Sans','Segoe UI',Helvetica,Arial,sans-serif" font-size="9.5" font-weight="700" fill="#FFFFFF">ID</text><rect x="912" y="529" width="26" height="18" rx="3" fill="#9B59B6"/><text x="925" y="542" text-anchor="middle" font-family="'IBM Plex Sans','Segoe UI',Helvetica,Arial,sans-serif" font-size="9.5" font-weight="700" fill="#FFFFFF">RR</text><rect x="942" y="529" width="26" height="18" rx="3" fill="#E08E0B"/><text x="955" y="542" text-anchor="middle" font-family="'IBM Plex Sans','Segoe UI',Helvetica,Arial,sans-serif" font-size="9.5" font-weight="700" fill="#FFFFFF">EX</text><rect x="972" y="529" width="26" height="18" rx="3" fill="#27AE60"/><text x="985" y="542" text-anchor="middle" font-family="'IBM Plex Sans','Segoe UI',Helvetica,Arial,sans-serif" font-size="9.5" font-weight="700" fill="#FFFFFF">MEM</text><rect x="1002" y="529" width="26" height="18" rx="3" fill="#C0392B"/><text x="1015" y="542" text-anchor="middle" font-family="'IBM Plex Sans','Segoe UI',Helvetica,Arial,sans-serif" font-size="9.5" font-weight="700" fill="#FFFFFF">WB</text><rect x="8" y="550" width="1158" height="24" fill="#EEF2EA" fill-opacity="0.6"/><text x="16" y="566" font-family="'IBM Plex Mono','SFMono-Regular',Consolas,monospace" font-size="11" fill="#6B7A70">0018</text><text x="56" y="566" font-family="'IBM Plex Mono','SFMono-Regular',Consolas,monospace" font-size="11.5" fill="#17251D">slli t2, t1, 3</text><rect x="882" y="553" width="26" height="18" rx="3" fill="#3C8DBC"/><text x="895" y="566" text-anchor="middle" font-family="'IBM Plex Sans','Segoe UI',Helvetica,Arial,sans-serif" font-size="9.5" font-weight="700" fill="#FFFFFF">IF</text><rect x="912" y="553" width="26" height="18" rx="3" fill="#6A5ACD"/><text x="925" y="566" text-anchor="middle" font-family="'IBM Plex Sans','Segoe UI',Helvetica,Arial,sans-serif" font-size="9.5" font-weight="700" fill="#FFFFFF">ID</text><rect x="942" y="553" width="26" height="18" rx="3" fill="#9B59B6"/><text x="955" y="566" text-anchor="middle" font-family="'IBM Plex Sans','Segoe UI',Helvetica,Arial,sans-serif" font-size="9.5" font-weight="700" fill="#FFFFFF">RR</text><rect x="972" y="553" width="26" height="18" rx="3" fill="#E08E0B"/><text x="985" y="566" text-anchor="middle" font-family="'IBM Plex Sans','Segoe UI',Helvetica,Arial,sans-serif" font-size="9.5" font-weight="700" fill="#FFFFFF">EX</text><rect x="1002" y="553" width="26" height="18" rx="3" fill="#27AE60"/><text x="1015" y="566" text-anchor="middle" font-family="'IBM Plex Sans','Segoe UI',Helvetica,Arial,sans-serif" font-size="9.5" font-weight="700" fill="#FFFFFF">MEM</text><rect x="1032" y="553" width="26" height="18" rx="3" fill="#C0392B"/><text x="1045" y="566" text-anchor="middle" font-family="'IBM Plex Sans','Segoe UI',Helvetica,Arial,sans-serif" font-size="9.5" font-weight="700" fill="#FFFFFF">WB</text><text x="16" y="590" font-family="'IBM Plex Mono','SFMono-Regular',Consolas,monospace" font-size="11" fill="#6B7A70">001c</text><text x="56" y="590" font-family="'IBM Plex Mono','SFMono-Regular',Consolas,monospace" font-size="11.5" fill="#17251D">add t2, s0, t2</text><rect x="912" y="577" width="26" height="18" rx="3" fill="#3C8DBC"/><text x="925" y="590" text-anchor="middle" font-family="'IBM Plex Sans','Segoe UI',Helvetica,Arial,sans-serif" font-size="9.5" font-weight="700" fill="#FFFFFF">IF</text><rect x="942" y="577" width="26" height="18" rx="3" fill="#6A5ACD"/><text x="955" y="590" text-anchor="middle" font-family="'IBM Plex Sans','Segoe UI',Helvetica,Arial,sans-serif" font-size="9.5" font-weight="700" fill="#FFFFFF">ID</text><rect x="972" y="577" width="26" height="18" rx="3" fill="#9B59B6"/><text x="985" y="590" text-anchor="middle" font-family="'IBM Plex Sans','Segoe UI',Helvetica,Arial,sans-serif" font-size="9.5" font-weight="700" fill="#FFFFFF">RR</text><rect x="1002" y="577" width="26" height="18" rx="3" fill="#E08E0B"/><text x="1015" y="590" text-anchor="middle" font-family="'IBM Plex Sans','Segoe UI',Helvetica,Arial,sans-serif" font-size="9.5" font-weight="700" fill="#FFFFFF">EX</text><circle cx="1026" cy="579" r="4" fill="#FFFFFF" stroke="#E08E0B" stroke-width="2"/><rect x="1032" y="577" width="26" height="18" rx="3" fill="#27AE60"/><text x="1045" y="590" text-anchor="middle" font-family="'IBM Plex Sans','Segoe UI',Helvetica,Arial,sans-serif" font-size="9.5" font-weight="700" fill="#FFFFFF">MEM</text><rect x="1062" y="577" width="26" height="18" rx="3" fill="#C0392B"/><text x="1075" y="590" text-anchor="middle" font-family="'IBM Plex Sans','Segoe UI',Helvetica,Arial,sans-serif" font-size="9.5" font-weight="700" fill="#FFFFFF">WB</text><text x="16" y="620" font-family="'IBM Plex Sans','Segoe UI',Helvetica,Arial,sans-serif" font-size="11.5" font-weight="600" fill="#4A5A50">hazard unit</text><rect x="612" y="606" width="26" height="18" rx="3" fill="#F2C94C"/><text x="625" y="619" text-anchor="middle" font-family="'IBM Plex Sans','Segoe UI',Helvetica,Arial,sans-serif" font-size="9.5" font-weight="700" fill="#17251D">stall</text><rect x="822" y="606" width="26" height="18" rx="3" fill="#8E44AD"/><text x="835" y="619" text-anchor="middle" font-family="'IBM Plex Sans','Segoe UI',Helvetica,Arial,sans-serif" font-size="9.5" font-weight="700" fill="#FFF">flush</text><rect x="1062" y="606" width="26" height="18" rx="3" fill="#F2C94C"/><text x="1075" y="619" text-anchor="middle" font-family="'IBM Plex Sans','Segoe UI',Helvetica,Arial,sans-serif" font-size="9.5" font-weight="700" fill="#17251D">stall</text><rect x="16" y="653" width="26" height="15" rx="3" fill="#3C8DBC"/><text x="29" y="664" text-anchor="middle" font-family="'IBM Plex Sans','Segoe UI',Helvetica,Arial,sans-serif" font-size="9.5" font-weight="700" fill="#FFF">IF</text><rect x="48" y="653" width="26" height="15" rx="3" fill="#6A5ACD"/><text x="61" y="664" text-anchor="middle" font-family="'IBM Plex Sans','Segoe UI',Helvetica,Arial,sans-serif" font-size="9.5" font-weight="700" fill="#FFF">ID</text><rect x="80" y="653" width="26" height="15" rx="3" fill="#9B59B6"/><text x="93" y="664" text-anchor="middle" font-family="'IBM Plex Sans','Segoe UI',Helvetica,Arial,sans-serif" font-size="9.5" font-weight="700" fill="#FFF">RR</text><rect x="112" y="653" width="26" height="15" rx="3" fill="#E08E0B"/><text x="125" y="664" text-anchor="middle" font-family="'IBM Plex Sans','Segoe UI',Helvetica,Arial,sans-serif" font-size="9.5" font-weight="700" fill="#FFF">EX</text><rect x="144" y="653" width="26" height="15" rx="3" fill="#27AE60"/><text x="157" y="664" text-anchor="middle" font-family="'IBM Plex Sans','Segoe UI',Helvetica,Arial,sans-serif" font-size="9.5" font-weight="700" fill="#FFF">MEM</text><rect x="176" y="653" width="26" height="15" rx="3" fill="#C0392B"/><text x="189" y="664" text-anchor="middle" font-family="'IBM Plex Sans','Segoe UI',Helvetica,Arial,sans-serif" font-size="9.5" font-weight="700" fill="#FFF">WB</text><rect x="216" y="653" width="26" height="15" rx="3" fill="#9B59B6"/><rect x="216" y="653" width="26" height="15" rx="3" fill="url(#hatch)"/><text x="248" y="664" font-family="'IBM Plex Sans','Segoe UI',Helvetica,Arial,sans-serif" font-size="11" fill="#4A5A50">stalled</text><circle cx="314" cy="660" r="4" fill="#FFF" stroke="#E08E0B" stroke-width="2"/><text x="324" y="664" font-family="'IBM Plex Sans','Segoe UI',Helvetica,Arial,sans-serif" font-size="11" fill="#4A5A50">operand forwarded into EX</text><rect x="488" y="653" width="26" height="15" rx="3" fill="#B4BDB6" fill-opacity="0.45"/><text x="520" y="664" font-family="'IBM Plex Sans','Segoe UI',Helvetica,Arial,sans-serif" font-size="11" fill="#4A5A50">flushed (wrong path)</text></svg>
