<svg xmlns="http://www.w3.org/2000/svg" viewBox="0 0 1184 702" width="1184" height="702"><defs><pattern id="hatch" width="6" height="6" patternUnits="userSpaceOnUse" patternTransform="rotate(45)"><line x1="0" y1="0" x2="0" y2="6" stroke="#17251D" stroke-opacity="0.35" stroke-width="2"/></pattern></defs><rect width="100%" height="100%" rx="10" fill="#FBFCF8" stroke="#D5DBD0"/><text x="16" y="28" font-family="'IBM Plex Sans','Segoe UI',Helvetica,Arial,sans-serif" font-size="17" font-weight="600" fill="#17251D">13_function_call_cost.s</text><text x="16" y="48" font-family="'IBM Plex Sans','Segoe UI',Helvetica,Arial,sans-serif" font-size="12" fill="#4A5A50">227 cycles, 109 instructions, CPI 2.08: 0 load stall(s), 2 flush(es), 13 FETCH2 redirect(s), 71 forwarded operand(s). First 30 cycles shown</text><text x="275" y="64" text-anchor="middle" font-family="'IBM Plex Mono','SFMono-Regular',Consolas,monospace" font-size="10.5" fill="#6B7A70">1</text><text x="305" y="64" text-anchor="middle" font-family="'IBM Plex Mono','SFMono-Regular',Consolas,monospace" font-size="10.5" fill="#6B7A70">2</text><text x="335" y="64" text-anchor="middle" font-family="'IBM Plex Mono','SFMono-Regular',Consolas,monospace" font-size="10.5" fill="#6B7A70">3</text><text x="365" y="64" text-anchor="middle" font-family="'IBM Plex Mono','SFMono-Regular',Consolas,monospace" font-size="10.5" fill="#6B7A70">4</text><text x="395" y="64" text-anchor="middle" font-family="'IBM Plex Mono','SFMono-Regular',Consolas,monospace" font-size="10.5" fill="#6B7A70">5</text><text x="425" y="64" text-anchor="middle" font-family="'IBM Plex Mono','SFMono-Regular',Consolas,monospace" font-size="10.5" fill="#6B7A70">6</text><text x="455" y="64" text-anchor="middle" font-family="'IBM Plex Mono','SFMono-Regular',Consolas,monospace" font-size="10.5" fill="#6B7A70">7</text><text x="485" y="64" text-anchor="middle" font-family="'IBM Plex Mono','SFMono-Regular',Consolas,monospace" font-size="10.5" fill="#6B7A70">8</text><text x="515" y="64" text-anchor="middle" font-family="'IBM Plex Mono','SFMono-Regular',Consolas,monospace" font-size="10.5" fill="#6B7A70">9</text><text x="545" y="64" text-anchor="middle" font-family="'IBM Plex Mono','SFMono-Regular',Consolas,monospace" font-size="10.5" fill="#6B7A70">10</text><text x="575" y="64" text-anchor="middle" font-family="'IBM Plex Mono','SFMono-Regular',Consolas,monospace" font-size="10.5" fill="#6B7A70">11</text><text x="605" y="64" text-anchor="middle" font-family="'IBM Plex Mono','SFMono-Regular',Consolas,monospace" font-size="10.5" fill="#6B7A70">12</text><text x="635" y="64" text-anchor="middle" font-family="'IBM Plex Mono','SFMono-Regular',Consolas,monospace" font-size="10.5" fill="#6B7A70">13</text><text x="665" y="64" text-anchor="middle" font-family="'IBM Plex Mono','SFMono-Regular',Consolas,monospace" font-size="10.5" fill="#6B7A70">14</text><text x="695" y="64" text-anchor="middle" font-family="'IBM Plex Mono','SFMono-Regular',Consolas,monospace" font-size="10.5" fill="#6B7A70">15</text><text x="725" y="64" text-anchor="middle" font-family="'IBM Plex Mono','SFMono-Regular',Consolas,monospace" font-size="10.5" fill="#6B7A70">16</text><text x="755" y="64" text-anchor="middle" font-family="'IBM Plex Mono','SFMono-Regular',Consolas,monospace" font-size="10.5" fill="#6B7A70">17</text><text x="785" y="64" text-anchor="middle" font-family="'IBM Plex Mono','SFMono-Regular',Consolas,monospace" font-size="10.5" fill="#6B7A70">18</text><text x="815" y="64" text-anchor="middle" font-family="'IBM Plex Mono','SFMono-Regular',Consolas,monospace" font-size="10.5" fill="#6B7A70">19</text><text x="845" y="64" text-anchor="middle" font-family="'IBM Plex Mono','SFMono-Regular',Consolas,monospace" font-size="10.5" fill="#6B7A70">20</text><text x="875" y="64" text-anchor="middle" font-family="'IBM Plex Mono','SFMono-Regular',Consolas,monospace" font-size="10.5" fill="#6B7A70">21</text><text x="905" y="64" text-anchor="middle" font-family="'IBM Plex Mono','SFMono-Regular',Consolas,monospace" font-size="10.5" fill="#6B7A70">22</text><text x="935" y="64" text-anchor="middle" font-family="'IBM Plex Mono','SFMono-Regular',Consolas,monospace" font-size="10.5" fill="#6B7A70">23</text><text x="965" y="64" text-anchor="middle" font-family="'IBM Plex Mono','SFMono-Regular',Consolas,monospace" font-size="10.5" fill="#6B7A70">24</text><text x="995" y="64" text-anchor="middle" font-family="'IBM Plex Mono','SFMono-Regular',Consolas,monospace" font-size="10.5" fill="#6B7A70">25</text><text x="1025" y="64" text-anchor="middle" font-family="'IBM Plex Mono','SFMono-Regular',Consolas,monospace" font-size="10.5" fill="#6B7A70">26</text><text x="1055" y="64" text-anchor="middle" font-family="'IBM Plex Mono','SFMono-Regular',Consolas,monospace" font-size="10.5" fill="#6B7A70">27</text><text x="1085" y="64" text-anchor="middle" font-family="'IBM Plex Mono','SFMono-Regular',Consolas,monospace" font-size="10.5" fill="#6B7A70">28</text><text x="1115" y="64" text-anchor="middle" font-family="'IBM Plex Mono','SFMono-Regular',Consolas,monospace" font-size="10.5" fill="#6B7A70">29</text><text x="1145" y="64" text-anchor="middle" font-family="'IBM Plex Mono','SFMono-Regular',Consolas,monospace" font-size="10.5" fill="#6B7A70">30</text><rect x="8" y="70" width="1168" height="24" fill="#EEF2EA" fill-opacity="0.6"/><text x="16" y="86" font-family="'IBM Plex Mono','SFMono-Regular',Consolas,monospace" font-size="11" fill="#6B7A70">2000</text><text x="56" y="86" font-family="'IBM Plex Mono','SFMono-Regular',Consolas,monospace" font-size="11.5" fill="#17251D">lui sp, 0xf</text><rect x="262" y="73" width="26" height="18" rx="3" fill="#2E86C1"/><text x="275" y="86" text-anchor="middle" font-family="'IBM Plex Sans','Segoe UI',Helvetica,Arial,sans-serif" font-size="10" font-weight="700" fill="#FFFFFF">F1</text><rect x="292" y="73" width="26" height="18" rx="3" fill="#17A2B8"/><text x="305" y="86" text-anchor="middle" font-family="'IBM Plex Sans','Segoe UI',Helvetica,Arial,sans-serif" font-size="10" font-weight="700" fill="#FFFFFF">F2</text><rect x="322" y="73" width="26" height="18" rx="3" fill="#6A5ACD"/><text x="335" y="86" text-anchor="middle" font-family="'IBM Plex Sans','Segoe UI',Helvetica,Arial,sans-serif" font-size="10" font-weight="700" fill="#FFFFFF">D</text><rect x="352" y="73" width="26" height="18" rx="3" fill="#E08E0B"/><text x="365" y="86" text-anchor="middle" font-family="'IBM Plex Sans','Segoe UI',Helvetica,Arial,sans-serif" font-size="10" font-weight="700" fill="#FFFFFF">E</text><rect x="382" y="73" width="26" height="18" rx="3" fill="#27AE60"/><text x="395" y="86" text-anchor="middle" font-family="'IBM Plex Sans','Segoe UI',Helvetica,Arial,sans-serif" font-size="10" font-weight="700" fill="#FFFFFF">M</text><rect x="412" y="73" width="26" height="18" rx="3" fill="#C0392B"/><text x="425" y="86" text-anchor="middle" font-family="'IBM Plex Sans','Segoe UI',Helvetica,Arial,sans-serif" font-size="10" font-weight="700" fill="#FFFFFF">W</text><text x="16" y="110" font-family="'IBM Plex Mono','SFMono-Regular',Consolas,monospace" font-size="11" fill="#6B7A70">2004</text><text x="56" y="110" font-family="'IBM Plex Mono','SFMono-Regular',Consolas,monospace" font-size="11.5" fill="#17251D">addi s4, zero, 0</text><rect x="292" y="97" width="26" height="18" rx="3" fill="#2E86C1"/><text x="305" y="110" text-anchor="middle" font-family="'IBM Plex Sans','Segoe UI',Helvetica,Arial,sans-serif" font-size="10" font-weight="700" fill="#FFFFFF">F1</text><rect x="322" y="97" width="26" height="18" rx="3" fill="#17A2B8"/><text x="335" y="110" text-anchor="middle" font-family="'IBM Plex Sans','Segoe UI',Helvetica,Arial,sans-serif" font-size="10" font-weight="700" fill="#FFFFFF">F2</text><rect x="352" y="97" width="26" height="18" rx="3" fill="#6A5ACD"/><text x="365" y="110" text-anchor="middle" font-family="'IBM Plex Sans','Segoe UI',Helvetica,Arial,sans-serif" font-size="10" font-weight="700" fill="#FFFFFF">D</text><rect x="382" y="97" width="26" height="18" rx="3" fill="#E08E0B"/><text x="395" y="110" text-anchor="middle" font-family="'IBM Plex Sans','Segoe UI',Helvetica,Arial,sans-serif" font-size="10" font-weight="700" fill="#FFFFFF">E</text><rect x="412" y="97" width="26" height="18" rx="3" fill="#27AE60"/><text x="425" y="110" text-anchor="middle" font-family="'IBM Plex Sans','Segoe UI',Helvetica,Arial,sans-serif" font-size="10" font-weight="700" fill="#FFFFFF">M</text><rect x="442" y="97" width="26" height="18" rx="3" fill="#C0392B"/><text x="455" y="110" text-anchor="middle" font-family="'IBM Plex Sans','Segoe UI',Helvetica,Arial,sans-serif" font-size="10" font-weight="700" fill="#FFFFFF">W</text><rect x="8" y="118" width="1168" height="24" fill="#EEF2EA" fill-opacity="0.6"/><text x="16" y="134" font-family="'IBM Plex Mono','SFMono-Regular',Consolas,monospace" font-size="11" fill="#6B7A70">2008</text><text x="56" y="134" font-family="'IBM Plex Mono','SFMono-Regular',Consolas,monospace" font-size="11.5" fill="#17251D">addi s5, zero, 8</text><rect x="322" y="121" width="26" height="18" rx="3" fill="#2E86C1"/><text x="335" y="134" text-anchor="middle" font-family="'IBM Plex Sans','Segoe UI',Helvetica,Arial,sans-serif" font-size="10" font-weight="700" fill="#FFFFFF">F1</text><rect x="352" y="121" width="26" height="18" rx="3" fill="#17A2B8"/><text x="365" y="134" text-anchor="middle" font-family="'IBM Plex Sans','Segoe UI',Helvetica,Arial,sans-serif" font-size="10" font-weight="700" fill="#FFFFFF">F2</text><rect x="382" y="121" width="26" height="18" rx="3" fill="#6A5ACD"/><text x="395" y="134" text-anchor="middle" font-family="'IBM Plex Sans','Segoe UI',Helvetica,Arial,sans-serif" font-size="10" font-weight="700" fill="#FFFFFF">D</text><rect x="412" y="121" width="26" height="18" rx="3" fill="#E08E0B"/><text x="425" y="134" text-anchor="middle" font-family="'IBM Plex Sans','Segoe UI',Helvetica,Arial,sans-serif" font-size="10" font-weight="700" fill="#FFFFFF">E</text><rect x="442" y="121" width="26" height="18" rx="3" fill="#27AE60"/><text x="455" y="134" text-anchor="middle" font-family="'IBM Plex Sans','Segoe UI',Helvetica,Arial,sans-serif" font-size="10" font-weight="700" fill="#FFFFFF">M</text><rect x="472" y="121" width="26" height="18" rx="3" fill="#C0392B"/><text x="485" y="134" text-anchor="middle" font-family="'IBM Plex Sans','Segoe UI',Helvetica,Arial,sans-serif" font-size="10" font-weight="700" fill="#FFFFFF">W</text><text x="16" y="158" font-family="'IBM Plex Mono','SFMono-Regular',Consolas,monospace" font-size="11" fill="#6B7A70">200c</text><text x="56" y="158" font-family="'IBM Plex Mono','SFMono-Regular',Consolas,monospace" font-size="11.5" fill="#17251D">addi zero, zero, 0</text><rect x="352" y="145" width="26" height="18" rx="3" fill="#2E86C1"/><text x="365" y="158" text-anchor="middle" font-family="'IBM Plex Sans','Segoe UI',Helvetica,Arial,sans-serif" font-size="10" font-weight="700" fill="#FFFFFF">F1</text><rect x="382" y="145" width="26" height="18" rx="3" fill="#17A2B8"/><text x="395" y="158" text-anchor="middle" font-family="'IBM Plex Sans','Segoe UI',Helvetica,Arial,sans-serif" font-size="10" font-weight="700" fill="#FFFFFF">F2</text><rect x="412" y="145" width="26" height="18" rx="3" fill="#6A5ACD"/><text x="425" y="158" text-anchor="middle" font-family="'IBM Plex Sans','Segoe UI',Helvetica,Arial,sans-serif" font-size="10" font-weight="700" fill="#FFFFFF">D</text><rect x="442" y="145" width="26" height="18" rx="3" fill="#E08E0B"/><text x="455" y="158" text-anchor="middle" font-family="'IBM Plex Sans','Segoe UI',Helvetica,Arial,sans-serif" font-size="10" font-weight="700" fill="#FFFFFF">E</text><rect x="472" y="145" width="26" height="18" rx="3" fill="#27AE60"/><text x="485" y="158" text-anchor="middle" font-family="'IBM Plex Sans','Segoe UI',Helvetica,Arial,sans-serif" font-size="10" font-weight="700" fill="#FFFFFF">M</text><rect x="502" y="145" width="26" height="18" rx="3" fill="#C0392B"/><text x="515" y="158" text-anchor="middle" font-family="'IBM Plex Sans','Segoe UI',Helvetica,Arial,sans-serif" font-size="10" font-weight="700" fill="#FFFFFF">W</text><rect x="8" y="166" width="1168" height="24" fill="#EEF2EA" fill-opacity="0.6"/><text x="16" y="182" font-family="'IBM Plex Mono','SFMono-Regular',Consolas,monospace" font-size="11" fill="#6B7A70">2010</text><text x="56" y="182" font-family="'IBM Plex Mono','SFMono-Regular',Consolas,monospace" font-size="11.5" fill="#17251D">addi zero, zero, 0</text><rect x="382" y="169" width="26" height="18" rx="3" fill="#2E86C1"/><text x="395" y="182" text-anchor="middle" font-family="'IBM Plex Sans','Segoe UI',Helvetica,Arial,sans-serif" font-size="10" font-weight="700" fill="#FFFFFF">F1</text><rect x="412" y="169" width="26" height="18" rx="3" fill="#17A2B8"/><text x="425" y="182" text-anchor="middle" font-family="'IBM Plex Sans','Segoe UI',Helvetica,Arial,sans-serif" font-size="10" font-weight="700" fill="#FFFFFF">F2</text><rect x="442" y="169" width="26" height="18" rx="3" fill="#6A5ACD"/><text x="455" y="182" text-anchor="middle" font-family="'IBM Plex Sans','Segoe UI',Helvetica,Arial,sans-serif" font-size="10" font-weight="700" fill="#FFFFFF">D</text><rect x="472" y="169" width="26" height="18" rx="3" fill="#E08E0B"/><text x="485" y="182" text-anchor="middle" font-family="'IBM Plex Sans','Segoe UI',Helvetica,Arial,sans-serif" font-size="10" font-weight="700" fill="#FFFFFF">E</text><rect x="502" y="169" width="26" height="18" rx="3" fill="#27AE60"/><text x="515" y="182" text-anchor="middle" font-family="'IBM Plex Sans','Segoe UI',Helvetica,Arial,sans-serif" font-size="10" font-weight="700" fill="#FFFFFF">M</text><rect x="532" y="169" width="26" height="18" rx="3" fill="#C0392B"/><text x="545" y="182" text-anchor="middle" font-family="'IBM Plex Sans','Segoe UI',Helvetica,Arial,sans-serif" font-size="10" font-weight="700" fill="#FFFFFF">W</text><text x="16" y="206" font-family="'IBM Plex Mono','SFMono-Regular',Consolas,monospace" font-size="11" fill="#6B7A70">2014</text><text x="56" y="206" font-family="'IBM Plex Mono','SFMono-Regular',Consolas,monospace" font-size="11.5" fill="#17251D">addi zero, zero, 0</text><rect x="412" y="193" width="26" height="18" rx="3" fill="#2E86C1"/><text x="425" y="206" text-anchor="middle" font-family="'IBM Plex Sans','Segoe UI',Helvetica,Arial,sans-serif" font-size="10" font-weight="700" fill="#FFFFFF">F1</text><rect x="442" y="193" width="26" height="18" rx="3" fill="#17A2B8"/><text x="455" y="206" text-anchor="middle" font-family="'IBM Plex Sans','Segoe UI',Helvetica,Arial,sans-serif" font-size="10" font-weight="700" fill="#FFFFFF">F2</text><rect x="472" y="193" width="26" height="18" rx="3" fill="#6A5ACD"/><text x="485" y="206" text-anchor="middle" font-family="'IBM Plex Sans','Segoe UI',Helvetica,Arial,sans-serif" font-size="10" font-weight="700" fill="#FFFFFF">D</text><rect x="502" y="193" width="26" height="18" rx="3" fill="#E08E0B"/><text x="515" y="206" text-anchor="middle" font-family="'IBM Plex Sans','Segoe UI',Helvetica,Arial,sans-serif" font-size="10" font-weight="700" fill="#FFFFFF">E</text><rect x="532" y="193" width="26" height="18" rx="3" fill="#27AE60"/><text x="545" y="206" text-anchor="middle" font-family="'IBM Plex Sans','Segoe UI',Helvetica,Arial,sans-serif" font-size="10" font-weight="700" fill="#FFFFFF">M</text><rect x="562" y="193" width="26" height="18" rx="3" fill="#C0392B"/><text x="575" y="206" text-anchor="middle" font-family="'IBM Plex Sans','Segoe UI',Helvetica,Arial,sans-serif" font-size="10" font-weight="700" fill="#FFFFFF">W</text><rect x="8" y="214" width="1168" height="24" fill="#EEF2EA" fill-opacity="0.6"/><text x="16" y="230" font-family="'IBM Plex Mono','SFMono-Regular',Consolas,monospace" font-size="11" fill="#6B7A70">2018</text><text x="56" y="230" font-family="'IBM Plex Mono','SFMono-Regular',Consolas,monospace" font-size="11.5" fill="#17251D">csrrs s0, cycle, zero</text><rect x="442" y="217" width="26" height="18" rx="3" fill="#2E86C1"/><text x="455" y="230" text-anchor="middle" font-family="'IBM Plex Sans','Segoe UI',Helvetica,Arial,sans-serif" font-size="10" font-weight="700" fill="#FFFFFF">F1</text><rect x="472" y="217" width="26" height="18" rx="3" fill="#17A2B8"/><text x="485" y="230" text-anchor="middle" font-family="'IBM Plex Sans','Segoe UI',Helvetica,Arial,sans-serif" font-size="10" font-weight="700" fill="#FFFFFF">F2</text><rect x="502" y="217" width="26" height="18" rx="3" fill="#6A5ACD"/><text x="515" y="230" text-anchor="middle" font-family="'IBM Plex Sans','Segoe UI',Helvetica,Arial,sans-serif" font-size="10" font-weight="700" fill="#FFFFFF">D</text><rect x="532" y="217" width="26" height="18" rx="3" fill="#E08E0B"/><text x="545" y="230" text-anchor="middle" font-family="'IBM Plex Sans','Segoe UI',Helvetica,Arial,sans-serif" font-size="10" font-weight="700" fill="#FFFFFF">E</text><rect x="562" y="217" width="26" height="18" rx="3" fill="#27AE60"/><text x="575" y="230" text-anchor="middle" font-family="'IBM Plex Sans','Segoe UI',Helvetica,Arial,sans-serif" font-size="10" font-weight="700" fill="#FFFFFF">M</text><rect x="592" y="217" width="26" height="18" rx="3" fill="#C0392B"/><text x="605" y="230" text-anchor="middle" font-family="'IBM Plex Sans','Segoe UI',Helvetica,Arial,sans-serif" font-size="10" font-weight="700" fill="#FFFFFF">W</text><text x="16" y="254" font-family="'IBM Plex Mono','SFMono-Regular',Consolas,monospace" font-size="11" fill="#6B7A70">201c</text><text x="56" y="254" font-family="'IBM Plex Mono','SFMono-Regular',Consolas,monospace" font-size="11.5" fill="#17251D">addi a0, s5, 0</text><rect x="472" y="241" width="26" height="18" rx="3" fill="#2E86C1"/><text x="485" y="254" text-anchor="middle" font-family="'IBM Plex Sans','Segoe UI',Helvetica,Arial,sans-serif" font-size="10" font-weight="700" fill="#FFFFFF">F1</text><rect x="502" y="241" width="26" height="18" rx="3" fill="#17A2B8"/><text x="515" y="254" text-anchor="middle" font-family="'IBM Plex Sans','Segoe UI',Helvetica,Arial,sans-serif" font-size="10" font-weight="700" fill="#FFFFFF">F2</text><rect x="532" y="241" width="26" height="18" rx="3" fill="#6A5ACD"/><text x="545" y="254" text-anchor="middle" font-family="'IBM Plex Sans','Segoe UI',Helvetica,Arial,sans-serif" font-size="10" font-weight="700" fill="#FFFFFF">D</text><rect x="562" y="241" width="26" height="18" rx="3" fill="#E08E0B"/><text x="575" y="254" text-anchor="middle" font-family="'IBM Plex Sans','Segoe UI',Helvetica,Arial,sans-serif" font-size="10" font-weight="700" fill="#FFFFFF">E</text><rect x="592" y="241" width="26" height="18" rx="3" fill="#27AE60"/><text x="605" y="254" text-anchor="middle" font-family="'IBM Plex Sans','Segoe UI',Helvetica,Arial,sans-serif" font-size="10" font-weight="700" fill="#FFFFFF">M</text><rect x="622" y="241" width="26" height="18" rx="3" fill="#C0392B"/><text x="635" y="254" text-anchor="middle" font-family="'IBM Plex Sans','Segoe UI',Helvetica,Arial,sans-serif" font-size="10" font-weight="700" fill="#FFFFFF">W</text><rect x="8" y="262" width="1168" height="24" fill="#EEF2EA" fill-opacity="0.6"/><text x="16" y="278" font-family="'IBM Plex Mono','SFMono-Regular',Consolas,monospace" font-size="11" fill="#6B7A70">2020</text><text x="56" y="278" font-family="'IBM Plex Mono','SFMono-Regular',Consolas,monospace" font-size="11.5" fill="#17251D">jal ra, 0x207c</text><rect x="502" y="265" width="26" height="18" rx="3" fill="#2E86C1"/><text x="515" y="278" text-anchor="middle" font-family="'IBM Plex Sans','Segoe UI',Helvetica,Arial,sans-serif" font-size="10" font-weight="700" fill="#FFFFFF">F1</text><rect x="532" y="265" width="26" height="18" rx="3" fill="#17A2B8"/><text x="545" y="278" text-anchor="middle" font-family="'IBM Plex Sans','Segoe UI',Helvetica,Arial,sans-serif" font-size="10" font-weight="700" fill="#FFFFFF">F2</text><rect x="562" y="265" width="26" height="18" rx="3" fill="#6A5ACD"/><text x="575" y="278" text-anchor="middle" font-family="'IBM Plex Sans','Segoe UI',Helvetica,Arial,sans-serif" font-size="10" font-weight="700" fill="#FFFFFF">D</text><rect x="592" y="265" width="26" height="18" rx="3" fill="#E08E0B"/><text x="605" y="278" text-anchor="middle" font-family="'IBM Plex Sans','Segoe UI',Helvetica,Arial,sans-serif" font-size="10" font-weight="700" fill="#FFFFFF">E</text><rect x="622" y="265" width="26" height="18" rx="3" fill="#27AE60"/><text x="635" y="278" text-anchor="middle" font-family="'IBM Plex Sans','Segoe UI',Helvetica,Arial,sans-serif" font-size="10" font-weight="700" fill="#FFFFFF">M</text><rect x="652" y="265" width="26" height="18" rx="3" fill="#C0392B"/><text x="665" y="278" text-anchor="middle" font-family="'IBM Plex Sans','Segoe UI',Helvetica,Arial,sans-serif" font-size="10" font-weight="700" fill="#FFFFFF">W</text><text x="16" y="302" font-family="'IBM Plex Mono','SFMono-Regular',Consolas,monospace" font-size="11" fill="#9AA59D">2024</text><text x="56" y="302" font-family="'IBM Plex Mono','SFMono-Regular',Consolas,monospace" font-size="11.5" fill="#9AA59D" text-decoration="line-through">add s4, s4, a0</text><rect x="532" y="289" width="26" height="18" rx="3" fill="#B4BDB6" fill-opacity="0.45"/><text x="545" y="302" text-anchor="middle" font-family="'IBM Plex Sans','Segoe UI',Helvetica,Arial,sans-serif" font-size="10" font-weight="700" fill="#FFFFFF">F1</text><rect x="8" y="310" width="1168" height="24" fill="#EEF2EA" fill-opacity="0.6"/><text x="16" y="326" font-family="'IBM Plex Mono','SFMono-Regular',Consolas,monospace" font-size="11" fill="#6B7A70">207c</text><text x="56" y="326" font-family="'IBM Plex Mono','SFMono-Regular',Consolas,monospace" font-size="11.5" fill="#17251D">mul a0, a0, a0</text><rect x="562" y="313" width="26" height="18" rx="3" fill="#2E86C1"/><text x="575" y="326" text-anchor="middle" font-family="'IBM Plex Sans','Segoe UI',Helvetica,Arial,sans-serif" font-size="10" font-weight="700" fill="#FFFFFF">F1</text><rect x="592" y="313" width="26" height="18" rx="3" fill="#17A2B8"/><text x="605" y="326" text-anchor="middle" font-family="'IBM Plex Sans','Segoe UI',Helvetica,Arial,sans-serif" font-size="10" font-weight="700" fill="#FFFFFF">F2</text><rect x="622" y="313" width="26" height="18" rx="3" fill="#6A5ACD"/><text x="635" y="326" text-anchor="middle" font-family="'IBM Plex Sans','Segoe UI',Helvetica,Arial,sans-serif" font-size="10" font-weight="700" fill="#FFFFFF">D</text><circle cx="646" cy="315" r="4" fill="#FFFFFF" stroke="#6A5ACD" stroke-width="2"/><rect x="652" y="313" width="26" height="18" rx="3" fill="#E08E0B"/><text x="665" y="326" text-anchor="middle" font-family="'IBM Plex Sans','Segoe UI',Helvetica,Arial,sans-serif" font-size="10" font-weight="700" fill="#FFFFFF">E</text><rect x="682" y="313" width="26" height="18" rx="3" fill="#E08E0B"/><text x="695" y="326" text-anchor="middle" font-family="'IBM Plex Sans','Segoe UI',Helvetica,Arial,sans-serif" font-size="10" font-weight="700" fill="#FFFFFF">E</text><rect x="712" y="313" width="26" height="18" rx="3" fill="#E08E0B"/><text x="725" y="326" text-anchor="middle" font-family="'IBM Plex Sans','Segoe UI',Helvetica,Arial,sans-serif" font-size="10" font-weight="700" fill="#FFFFFF">E</text><rect x="742" y="313" width="26" height="18" rx="3" fill="#E08E0B"/><text x="755" y="326" text-anchor="middle" font-family="'IBM Plex Sans','Segoe UI',Helvetica,Arial,sans-serif" font-size="10" font-weight="700" fill="#FFFFFF">E</text><rect x="772" y="313" width="26" height="18" rx="3" fill="#E08E0B"/><text x="785" y="326" text-anchor="middle" font-family="'IBM Plex Sans','Segoe UI',Helvetica,Arial,sans-serif" font-size="10" font-weight="700" fill="#FFFFFF">E</text><rect x="802" y="313" width="26" height="18" rx="3" fill="#E08E0B"/><text x="815" y="326" text-anchor="middle" font-family="'IBM Plex Sans','Segoe UI',Helvetica,Arial,sans-serif" font-size="10" font-weight="700" fill="#FFFFFF">E</text><rect x="832" y="313" width="26" height="18" rx="3" fill="#E08E0B"/><text x="845" y="326" text-anchor="middle" font-family="'IBM Plex Sans','Segoe UI',Helvetica,Arial,sans-serif" font-size="10" font-weight="700" fill="#FFFFFF">E</text><rect x="862" y="313" width="26" height="18" rx="3" fill="#27AE60"/><text x="875" y="326" text-anchor="middle" font-family="'IBM Plex Sans','Segoe UI',Helvetica,Arial,sans-serif" font-size="10" font-weight="700" fill="#FFFFFF">M</text><rect x="892" y="313" width="26" height="18" rx="3" fill="#C0392B"/><text x="905" y="326" text-anchor="middle" font-family="'IBM Plex Sans','Segoe UI',Helvetica,Arial,sans-serif" font-size="10" font-weight="700" fill="#FFFFFF">W</text><text x="16" y="350" font-family="'IBM Plex Mono','SFMono-Regular',Consolas,monospace" font-size="11" fill="#6B7A70">2080</text><text x="56" y="350" font-family="'IBM Plex Mono','SFMono-Regular',Consolas,monospace" font-size="11.5" fill="#17251D">jalr zero, 0(ra)</text><rect x="592" y="337" width="26" height="18" rx="3" fill="#2E86C1"/><text x="605" y="350" text-anchor="middle" font-family="'IBM Plex Sans','Segoe UI',Helvetica,Arial,sans-serif" font-size="10" font-weight="700" fill="#FFFFFF">F1</text><rect x="622" y="337" width="26" height="18" rx="3" fill="#17A2B8"/><text x="635" y="350" text-anchor="middle" font-family="'IBM Plex Sans','Segoe UI',Helvetica,Arial,sans-serif" font-size="10" font-weight="700" fill="#FFFFFF">F2</text><rect x="652" y="337" width="26" height="18" rx="3" fill="#6A5ACD"/><text x="665" y="350" text-anchor="middle" font-family="'IBM Plex Sans','Segoe UI',Helvetica,Arial,sans-serif" font-size="10" font-weight="700" fill="#FFFFFF">D</text><circle cx="676" cy="339" r="4" fill="#FFFFFF" stroke="#6A5ACD" stroke-width="2"/><rect x="682" y="337" width="26" height="18" rx="3" fill="#6A5ACD"/><text x="695" y="350" text-anchor="middle" font-family="'IBM Plex Sans','Segoe UI',Helvetica,Arial,sans-serif" font-size="10" font-weight="700" fill="#FFFFFF">D</text><rect x="712" y="337" width="26" height="18" rx="3" fill="#6A5ACD"/><text x="725" y="350" text-anchor="middle" font-family="'IBM Plex Sans','Segoe UI',Helvetica,Arial,sans-serif" font-size="10" font-weight="700" fill="#FFFFFF">D</text><rect x="742" y="337" width="26" height="18" rx="3" fill="#6A5ACD"/><text x="755" y="350" text-anchor="middle" font-family="'IBM Plex Sans','Segoe UI',Helvetica,Arial,sans-serif" font-size="10" font-weight="700" fill="#FFFFFF">D</text><rect x="772" y="337" width="26" height="18" rx="3" fill="#6A5ACD"/><text x="785" y="350" text-anchor="middle" font-family="'IBM Plex Sans','Segoe UI',Helvetica,Arial,sans-serif" font-size="10" font-weight="700" fill="#FFFFFF">D</text><rect x="802" y="337" width="26" height="18" rx="3" fill="#6A5ACD"/><text x="815" y="350" text-anchor="middle" font-family="'IBM Plex Sans','Segoe UI',Helvetica,Arial,sans-serif" font-size="10" font-weight="700" fill="#FFFFFF">D</text><rect x="832" y="337" width="26" height="18" rx="3" fill="#6A5ACD"/><text x="845" y="350" text-anchor="middle" font-family="'IBM Plex Sans','Segoe UI',Helvetica,Arial,sans-serif" font-size="10" font-weight="700" fill="#FFFFFF">D</text><rect x="862" y="337" width="26" height="18" rx="3" fill="#E08E0B"/><text x="875" y="350" text-anchor="middle" font-family="'IBM Plex Sans','Segoe UI',Helvetica,Arial,sans-serif" font-size="10" font-weight="700" fill="#FFFFFF">E</text><rect x="892" y="337" width="26" height="18" rx="3" fill="#27AE60"/><text x="905" y="350" text-anchor="middle" font-family="'IBM Plex Sans','Segoe UI',Helvetica,Arial,sans-serif" font-size="10" font-weight="700" fill="#FFFFFF">M</text><rect x="922" y="337" width="26" height="18" rx="3" fill="#C0392B"/><text x="935" y="350" text-anchor="middle" font-family="'IBM Plex Sans','Segoe UI',Helvetica,Arial,sans-serif" font-size="10" font-weight="700" fill="#FFFFFF">W</text><rect x="8" y="358" width="1168" height="24" fill="#EEF2EA" fill-opacity="0.6"/><text x="16" y="374" font-family="'IBM Plex Mono','SFMono-Regular',Consolas,monospace" font-size="11" fill="#9AA59D">2084</text><text x="56" y="374" font-family="'IBM Plex Mono','SFMono-Regular',Consolas,monospace" font-size="11.5" fill="#9AA59D" text-decoration="line-through">(empty memory, not code)</text><rect x="622" y="361" width="26" height="18" rx="3" fill="#B4BDB6" fill-opacity="0.45"/><text x="635" y="374" text-anchor="middle" font-family="'IBM Plex Sans','Segoe UI',Helvetica,Arial,sans-serif" font-size="10" font-weight="700" fill="#FFFFFF">F1</text><text x="16" y="398" font-family="'IBM Plex Mono','SFMono-Regular',Consolas,monospace" font-size="11" fill="#6B7A70">2024</text><text x="56" y="398" font-family="'IBM Plex Mono','SFMono-Regular',Consolas,monospace" font-size="11.5" fill="#17251D">add s4, s4, a0</text><rect x="652" y="385" width="26" height="18" rx="3" fill="#2E86C1"/><text x="665" y="398" text-anchor="middle" font-family="'IBM Plex Sans','Segoe UI',Helvetica,Arial,sans-serif" font-size="10" font-weight="700" fill="#FFFFFF">F1</text><rect x="682" y="385" width="26" height="18" rx="3" fill="#2E86C1"/><text x="695" y="398" text-anchor="middle" font-family="'IBM Plex Sans','Segoe UI',Helvetica,Arial,sans-serif" font-size="10" font-weight="700" fill="#FFFFFF">F1</text><rect x="712" y="385" width="26" height="18" rx="3" fill="#2E86C1"/><text x="725" y="398" text-anchor="middle" font-family="'IBM Plex Sans','Segoe UI',Helvetica,Arial,sans-serif" font-size="10" font-weight="700" fill="#FFFFFF">F1</text><rect x="742" y="385" width="26" height="18" rx="3" fill="#2E86C1"/><text x="755" y="398" text-anchor="middle" font-family="'IBM Plex Sans','Segoe UI',Helvetica,Arial,sans-serif" font-size="10" font-weight="700" fill="#FFFFFF">F1</text><rect x="772" y="385" width="26" height="18" rx="3" fill="#2E86C1"/><text x="785" y="398" text-anchor="middle" font-family="'IBM Plex Sans','Segoe UI',Helvetica,Arial,sans-serif" font-size="10" font-weight="700" fill="#FFFFFF">F1</text><rect x="802" y="385" width="26" height="18" rx="3" fill="#2E86C1"/><text x="815" y="398" text-anchor="middle" font-family="'IBM Plex Sans','Segoe UI',Helvetica,Arial,sans-serif" font-size="10" font-weight="700" fill="#FFFFFF">F1</text><rect x="832" y="385" width="26" height="18" rx="3" fill="#2E86C1"/><text x="845" y="398" text-anchor="middle" font-family="'IBM Plex Sans','Segoe UI',Helvetica,Arial,sans-serif" font-size="10" font-weight="700" fill="#FFFFFF">F1</text><rect x="862" y="385" width="26" height="18" rx="3" fill="#17A2B8"/><text x="875" y="398" text-anchor="middle" font-family="'IBM Plex Sans','Segoe UI',Helvetica,Arial,sans-serif" font-size="10" font-weight="700" fill="#FFFFFF">F2</text><rect x="892" y="385" width="26" height="18" rx="3" fill="#6A5ACD"/><text x="905" y="398" text-anchor="middle" font-family="'IBM Plex Sans','Segoe UI',Helvetica,Arial,sans-serif" font-size="10" font-weight="700" fill="#FFFFFF">D</text><circle cx="916" cy="387" r="4" fill="#FFFFFF" stroke="#6A5ACD" stroke-width="2"/><rect x="922" y="385" width="26" height="18" rx="3" fill="#E08E0B"/><text x="935" y="398" text-anchor="middle" font-family="'IBM Plex Sans','Segoe UI',Helvetica,Arial,sans-serif" font-size="10" font-weight="700" fill="#FFFFFF">E</text><rect x="952" y="385" width="26" height="18" rx="3" fill="#27AE60"/><text x="965" y="398" text-anchor="middle" font-family="'IBM Plex Sans','Segoe UI',Helvetica,Arial,sans-serif" font-size="10" font-weight="700" fill="#FFFFFF">M</text><rect x="982" y="385" width="26" height="18" rx="3" fill="#C0392B"/><text x="995" y="398" text-anchor="middle" font-family="'IBM Plex Sans','Segoe UI',Helvetica,Arial,sans-serif" font-size="10" font-weight="700" fill="#FFFFFF">W</text><rect x="8" y="406" width="1168" height="24" fill="#EEF2EA" fill-opacity="0.6"/><text x="16" y="422" font-family="'IBM Plex Mono','SFMono-Regular',Consolas,monospace" font-size="11" fill="#6B7A70">2028</text><text x="56" y="422" font-family="'IBM Plex Mono','SFMono-Regular',Consolas,monospace" font-size="11.5" fill="#17251D">addi s5, s5, -1</text><rect x="862" y="409" width="26" height="18" rx="3" fill="#2E86C1"/><text x="875" y="422" text-anchor="middle" font-family="'IBM Plex Sans','Segoe UI',Helvetica,Arial,sans-serif" font-size="10" font-weight="700" fill="#FFFFFF">F1</text><rect x="892" y="409" width="26" height="18" rx="3" fill="#17A2B8"/><text x="905" y="422" text-anchor="middle" font-family="'IBM Plex Sans','Segoe UI',Helvetica,Arial,sans-serif" font-size="10" font-weight="700" fill="#FFFFFF">F2</text><rect x="922" y="409" width="26" height="18" rx="3" fill="#6A5ACD"/><text x="935" y="422" text-anchor="middle" font-family="'IBM Plex Sans','Segoe UI',Helvetica,Arial,sans-serif" font-size="10" font-weight="700" fill="#FFFFFF">D</text><rect x="952" y="409" width="26" height="18" rx="3" fill="#E08E0B"/><text x="965" y="422" text-anchor="middle" font-family="'IBM Plex Sans','Segoe UI',Helvetica,Arial,sans-serif" font-size="10" font-weight="700" fill="#FFFFFF">E</text><rect x="982" y="409" width="26" height="18" rx="3" fill="#27AE60"/><text x="995" y="422" text-anchor="middle" font-family="'IBM Plex Sans','Segoe UI',Helvetica,Arial,sans-serif" font-size="10" font-weight="700" fill="#FFFFFF">M</text><rect x="1012" y="409" width="26" height="18" rx="3" fill="#C0392B"/><text x="1025" y="422" text-anchor="middle" font-family="'IBM Plex Sans','Segoe UI',Helvetica,Arial,sans-serif" font-size="10" font-weight="700" fill="#FFFFFF">W</text><text x="16" y="446" font-family="'IBM Plex Mono','SFMono-Regular',Consolas,monospace" font-size="11" fill="#6B7A70">202c</text><text x="56" y="446" font-family="'IBM Plex Mono','SFMono-Regular',Consolas,monospace" font-size="11.5" fill="#17251D">bne s5, zero, 0x201c</text><rect x="892" y="433" width="26" height="18" rx="3" fill="#2E86C1"/><text x="905" y="446" text-anchor="middle" font-family="'IBM Plex Sans','Segoe UI',Helvetica,Arial,sans-serif" font-size="10" font-weight="700" fill="#FFFFFF">F1</text><rect x="922" y="433" width="26" height="18" rx="3" fill="#17A2B8"/><text x="935" y="446" text-anchor="middle" font-family="'IBM Plex Sans','Segoe UI',Helvetica,Arial,sans-serif" font-size="10" font-weight="700" fill="#FFFFFF">F2</text><rect x="952" y="433" width="26" height="18" rx="3" fill="#6A5ACD"/><text x="965" y="446" text-anchor="middle" font-family="'IBM Plex Sans','Segoe UI',Helvetica,Arial,sans-serif" font-size="10" font-weight="700" fill="#FFFFFF">D</text><circle cx="976" cy="435" r="4" fill="#FFFFFF" stroke="#6A5ACD" stroke-width="2"/><rect x="982" y="433" width="26" height="18" rx="3" fill="#E08E0B"/><text x="995" y="446" text-anchor="middle" font-family="'IBM Plex Sans','Segoe UI',Helvetica,Arial,sans-serif" font-size="10" font-weight="700" fill="#FFFFFF">E</text><rect x="1012" y="433" width="26" height="18" rx="3" fill="#27AE60"/><text x="1025" y="446" text-anchor="middle" font-family="'IBM Plex Sans','Segoe UI',Helvetica,Arial,sans-serif" font-size="10" font-weight="700" fill="#FFFFFF">M</text><rect x="1042" y="433" width="26" height="18" rx="3" fill="#C0392B"/><text x="1055" y="446" text-anchor="middle" font-family="'IBM Plex Sans','Segoe UI',Helvetica,Arial,sans-serif" font-size="10" font-weight="700" fill="#FFFFFF">W</text><rect x="8" y="454" width="1168" height="24" fill="#EEF2EA" fill-opacity="0.6"/><text x="16" y="470" font-family="'IBM Plex Mono','SFMono-Regular',Consolas,monospace" font-size="11" fill="#9AA59D">2030</text><text x="56" y="470" font-family="'IBM Plex Mono','SFMono-Regular',Consolas,monospace" font-size="11.5" fill="#9AA59D" text-decoration="line-through">csrrs s1, cycle, zero</text><rect x="922" y="457" width="26" height="18" rx="3" fill="#B4BDB6" fill-opacity="0.45"/><text x="935" y="470" text-anchor="middle" font-family="'IBM Plex Sans','Segoe UI',Helvetica,Arial,sans-serif" font-size="10" font-weight="700" fill="#FFFFFF">F1</text><text x="16" y="494" font-family="'IBM Plex Mono','SFMono-Regular',Consolas,monospace" font-size="11" fill="#6B7A70">201c</text><text x="56" y="494" font-family="'IBM Plex Mono','SFMono-Regular',Consolas,monospace" font-size="11.5" fill="#17251D">addi a0, s5, 0</text><rect x="952" y="481" width="26" height="18" rx="3" fill="#2E86C1"/><text x="965" y="494" text-anchor="middle" font-family="'IBM Plex Sans','Segoe UI',Helvetica,Arial,sans-serif" font-size="10" font-weight="700" fill="#FFFFFF">F1</text><rect x="982" y="481" width="26" height="18" rx="3" fill="#17A2B8"/><text x="995" y="494" text-anchor="middle" font-family="'IBM Plex Sans','Segoe UI',Helvetica,Arial,sans-serif" font-size="10" font-weight="700" fill="#FFFFFF">F2</text><rect x="1012" y="481" width="26" height="18" rx="3" fill="#6A5ACD"/><text x="1025" y="494" text-anchor="middle" font-family="'IBM Plex Sans','Segoe UI',Helvetica,Arial,sans-serif" font-size="10" font-weight="700" fill="#FFFFFF">D</text><circle cx="1036" cy="483" r="4" fill="#FFFFFF" stroke="#6A5ACD" stroke-width="2"/><rect x="1042" y="481" width="26" height="18" rx="3" fill="#E08E0B"/><text x="1055" y="494" text-anchor="middle" font-family="'IBM Plex Sans','Segoe UI',Helvetica,Arial,sans-serif" font-size="10" font-weight="700" fill="#FFFFFF">E</text><rect x="1072" y="481" width="26" height="18" rx="3" fill="#27AE60"/><text x="1085" y="494" text-anchor="middle" font-family="'IBM Plex Sans','Segoe UI',Helvetica,Arial,sans-serif" font-size="10" font-weight="700" fill="#FFFFFF">M</text><rect x="1102" y="481" width="26" height="18" rx="3" fill="#C0392B"/><text x="1115" y="494" text-anchor="middle" font-family="'IBM Plex Sans','Segoe UI',Helvetica,Arial,sans-serif" font-size="10" font-weight="700" fill="#FFFFFF">W</text><rect x="8" y="502" width="1168" height="24" fill="#EEF2EA" fill-opacity="0.6"/><text x="16" y="518" font-family="'IBM Plex Mono','SFMono-Regular',Consolas,monospace" font-size="11" fill="#6B7A70">2020</text><text x="56" y="518" font-family="'IBM Plex Mono','SFMono-Regular',Consolas,monospace" font-size="11.5" fill="#17251D">jal ra, 0x207c</text><rect x="982" y="505" width="26" height="18" rx="3" fill="#2E86C1"/><text x="995" y="518" text-anchor="middle" font-family="'IBM Plex Sans','Segoe UI',Helvetica,Arial,sans-serif" font-size="10" font-weight="700" fill="#FFFFFF">F1</text><rect x="1012" y="505" width="26" height="18" rx="3" fill="#17A2B8"/><text x="1025" y="518" text-anchor="middle" font-family="'IBM Plex Sans','Segoe UI',Helvetica,Arial,sans-serif" font-size="10" font-weight="700" fill="#FFFFFF">F2</text><rect x="1042" y="505" width="26" height="18" rx="3" fill="#6A5ACD"/><text x="1055" y="518" text-anchor="middle" font-family="'IBM Plex Sans','Segoe UI',Helvetica,Arial,sans-serif" font-size="10" font-weight="700" fill="#FFFFFF">D</text><rect x="1072" y="505" width="26" height="18" rx="3" fill="#E08E0B"/><text x="1085" y="518" text-anchor="middle" font-family="'IBM Plex Sans','Segoe UI',Helvetica,Arial,sans-serif" font-size="10" font-weight="700" fill="#FFFFFF">E</text><rect x="1102" y="505" width="26" height="18" rx="3" fill="#27AE60"/><text x="1115" y="518" text-anchor="middle" font-family="'IBM Plex Sans','Segoe UI',Helvetica,Arial,sans-serif" font-size="10" font-weight="700" fill="#FFFFFF">M</text><rect x="1132" y="505" width="26" height="18" rx="3" fill="#C0392B"/><text x="1145" y="518" text-anchor="middle" font-family="'IBM Plex Sans','Segoe UI',Helvetica,Arial,sans-serif" font-size="10" font-weight="700" fill="#FFFFFF">W</text><text x="16" y="542" font-family="'IBM Plex Mono','SFMono-Regular',Consolas,monospace" font-size="11" fill="#6B7A70">207c</text><text x="56" y="542" font-family="'IBM Plex Mono','SFMono-Regular',Consolas,monospace" font-size="11.5" fill="#17251D">mul a0, a0, a0</text><rect x="1012" y="529" width="26" height="18" rx="3" fill="#2E86C1"/><text x="1025" y="542" text-anchor="middle" font-family="'IBM Plex Sans','Segoe UI',Helvetica,Arial,sans-serif" font-size="10" font-weight="700" fill="#FFFFFF">F1</text><rect x="1042" y="529" width="26" height="18" rx="3" fill="#17A2B8"/><text x="1055" y="542" text-anchor="middle" font-family="'IBM Plex Sans','Segoe UI',Helvetica,Arial,sans-serif" font-size="10" font-weight="700" fill="#FFFFFF">F2</text><rect x="1072" y="529" width="26" height="18" rx="3" fill="#6A5ACD"/><text x="1085" y="542" text-anchor="middle" font-family="'IBM Plex Sans','Segoe UI',Helvetica,Arial,sans-serif" font-size="10" font-weight="700" fill="#FFFFFF">D</text><circle cx="1096" cy="531" r="4" fill="#FFFFFF" stroke="#6A5ACD" stroke-width="2"/><rect x="1102" y="529" width="26" height="18" rx="3" fill="#E08E0B"/><text x="1115" y="542" text-anchor="middle" font-family="'IBM Plex Sans','Segoe UI',Helvetica,Arial,sans-serif" font-size="10" font-weight="700" fill="#FFFFFF">E</text><rect x="1132" y="529" width="26" height="18" rx="3" fill="#E08E0B"/><text x="1145" y="542" text-anchor="middle" font-family="'IBM Plex Sans','Segoe UI',Helvetica,Arial,sans-serif" font-size="10" font-weight="700" fill="#FFFFFF">E</text><rect x="8" y="550" width="1168" height="24" fill="#EEF2EA" fill-opacity="0.6"/><text x="16" y="566" font-family="'IBM Plex Mono','SFMono-Regular',Consolas,monospace" font-size="11" fill="#6B7A70">2080</text><text x="56" y="566" font-family="'IBM Plex Mono','SFMono-Regular',Consolas,monospace" font-size="11.5" fill="#17251D">jalr zero, 0(ra)</text><rect x="1042" y="553" width="26" height="18" rx="3" fill="#2E86C1"/><text x="1055" y="566" text-anchor="middle" font-family="'IBM Plex Sans','Segoe UI',Helvetica,Arial,sans-serif" font-size="10" font-weight="700" fill="#FFFFFF">F1</text><rect x="1072" y="553" width="26" height="18" rx="3" fill="#17A2B8"/><text x="1085" y="566" text-anchor="middle" font-family="'IBM Plex Sans','Segoe UI',Helvetica,Arial,sans-serif" font-size="10" font-weight="700" fill="#FFFFFF">F2</text><rect x="1102" y="553" width="26" height="18" rx="3" fill="#6A5ACD"/><text x="1115" y="566" text-anchor="middle" font-family="'IBM Plex Sans','Segoe UI',Helvetica,Arial,sans-serif" font-size="10" font-weight="700" fill="#FFFFFF">D</text><circle cx="1126" cy="555" r="4" fill="#FFFFFF" stroke="#6A5ACD" stroke-width="2"/><rect x="1132" y="553" width="26" height="18" rx="3" fill="#6A5ACD"/><text x="1145" y="566" text-anchor="middle" font-family="'IBM Plex Sans','Segoe UI',Helvetica,Arial,sans-serif" font-size="10" font-weight="700" fill="#FFFFFF">D</text><circle cx="1156" cy="555" r="4" fill="#FFFFFF" stroke="#6A5ACD" stroke-width="2"/><text x="16" y="590" font-family="'IBM Plex Mono','SFMono-Regular',Consolas,monospace" font-size="11" fill="#9AA59D">2084</text><text x="56" y="590" font-family="'IBM Plex Mono','SFMono-Regular',Consolas,monospace" font-size="11.5" fill="#9AA59D" text-decoration="line-through">(empty memory, not code)</text><rect x="1072" y="577" width="26" height="18" rx="3" fill="#B4BDB6" fill-opacity="0.45"/><text x="1085" y="590" text-anchor="middle" font-family="'IBM Plex Sans','Segoe UI',Helvetica,Arial,sans-serif" font-size="10" font-weight="700" fill="#FFFFFF">F1</text><text x="16" y="620" font-family="'IBM Plex Sans','Segoe UI',Helvetica,Arial,sans-serif" font-size="11.5" font-weight="600" fill="#4A5A50">hazard events</text><rect x="532" y="606" width="26" height="18" rx="3" fill="#17A2B8"/><text x="545" y="619" text-anchor="middle" font-family="'IBM Plex Sans','Segoe UI',Helvetica,Arial,sans-serif" font-size="8.5" font-weight="700" fill="#FFF">redir</text><rect x="622" y="606" width="26" height="18" rx="3" fill="#17A2B8"/><text x="635" y="619" text-anchor="middle" font-family="'IBM Plex Sans','Segoe UI',Helvetica,Arial,sans-serif" font-size="8.5" font-weight="700" fill="#FFF">redir</text><rect x="922" y="606" width="26" height="18" rx="3" fill="#17A2B8"/><text x="935" y="619" text-anchor="middle" font-family="'IBM Plex Sans','Segoe UI',Helvetica,Arial,sans-serif" font-size="8.5" font-weight="700" fill="#FFF">redir</text><rect x="1072" y="606" width="26" height="18" rx="3" fill="#17A2B8"/><text x="1085" y="619" text-anchor="middle" font-family="'IBM Plex Sans','Segoe UI',Helvetica,Arial,sans-serif" font-size="8.5" font-weight="700" fill="#FFF">redir</text><rect x="16" y="655" width="26" height="15" rx="3" fill="#2E86C1"/><text x="29" y="666" text-anchor="middle" font-family="'IBM Plex Sans','Segoe UI',Helvetica,Arial,sans-serif" font-size="9.5" font-weight="700" fill="#FFF">F1</text><text x="46" y="666" font-family="'IBM Plex Sans','Segoe UI',Helvetica,Arial,sans-serif" font-size="10.5" fill="#4A5A50">FETCH1</text><rect x="98.4" y="655" width="26" height="15" rx="3" fill="#17A2B8"/><text x="111.4" y="666" text-anchor="middle" font-family="'IBM Plex Sans','Segoe UI',Helvetica,Arial,sans-serif" font-size="9.5" font-weight="700" fill="#FFF">F2</text><text x="128.4" y="666" font-family="'IBM Plex Sans','Segoe UI',Helvetica,Arial,sans-serif" font-size="10.5" fill="#4A5A50">FETCH2</text><rect x="180.8" y="655" width="26" height="15" rx="3" fill="#6A5ACD"/><text x="193.8" y="666" text-anchor="middle" font-family="'IBM Plex Sans','Segoe UI',Helvetica,Arial,sans-serif" font-size="9.5" font-weight="700" fill="#FFF">D</text><text x="210.8" y="666" font-family="'IBM Plex Sans','Segoe UI',Helvetica,Arial,sans-serif" font-size="10.5" fill="#4A5A50">DECODE</text><rect x="263.20000000000005" y="655" width="26" height="15" rx="3" fill="#E08E0B"/><text x="276.20000000000005" y="666" text-anchor="middle" font-family="'IBM Plex Sans','Segoe UI',Helvetica,Arial,sans-serif" font-size="9.5" font-weight="700" fill="#FFF">E</text><text x="293.20000000000005" y="666" font-family="'IBM Plex Sans','Segoe UI',Helvetica,Arial,sans-serif" font-size="10.5" fill="#4A5A50">EXECUTE</text><rect x="353.00000000000006" y="655" width="26" height="15" rx="3" fill="#27AE60"/><text x="366.00000000000006" y="666" text-anchor="middle" font-family="'IBM Plex Sans','Segoe UI',Helvetica,Arial,sans-serif" font-size="9.5" font-weight="700" fill="#FFF">M</text><text x="383.00000000000006" y="666" font-family="'IBM Plex Sans','Segoe UI',Helvetica,Arial,sans-serif" font-size="10.5" fill="#4A5A50">MEMORY</text><rect x="435.4000000000001" y="655" width="26" height="15" rx="3" fill="#C0392B"/><text x="448.4000000000001" y="666" text-anchor="middle" font-family="'IBM Plex Sans','Segoe UI',Helvetica,Arial,sans-serif" font-size="9.5" font-weight="700" fill="#FFF">W</text><text x="465.4000000000001" y="666" font-family="'IBM Plex Sans','Segoe UI',Helvetica,Arial,sans-serif" font-size="10.5" fill="#4A5A50">WRITEBACK</text><rect x="16" y="673" width="26" height="15" rx="3" fill="#6A5ACD"/><rect x="16" y="673" width="26" height="15" rx="3" fill="url(#hatch)"/><text x="48" y="684" font-family="'IBM Plex Sans','Segoe UI',Helvetica,Arial,sans-serif" font-size="11" fill="#4A5A50">held by LOAD_STALL</text><circle cx="186" cy="680" r="4" fill="#FFF" stroke="#6A5ACD" stroke-width="2"/><text x="196" y="684" font-family="'IBM Plex Sans','Segoe UI',Helvetica,Arial,sans-serif" font-size="11" fill="#4A5A50">operand forwarded into DECODE</text><rect x="386" y="673" width="26" height="15" rx="3" fill="#B4BDB6" fill-opacity="0.45"/><text x="418" y="684" font-family="'IBM Plex Sans','Segoe UI',Helvetica,Arial,sans-serif" font-size="11" fill="#4A5A50">squashed (wrong path)</text></svg>
